<?xml version="1.0" encoding="utf-8"?>
<!-- Generator: Adobe Illustrator 16.0.0, SVG Export Plug-In . SVG Version: 6.00 Build 0)  -->
<!DOCTYPE svg PUBLIC "-//W3C//DTD SVG 1.1//EN" "http://www.w3.org/Graphics/SVG/1.1/DTD/svg11.dtd">
<svg version="1.1" id="_x31_" xmlns="http://www.w3.org/2000/svg" xmlns:xlink="http://www.w3.org/1999/xlink" x="0px" y="0px"
	 width="841.89px" height="327.827px" viewBox="0 0 841.89 327.827" enable-background="new 0 0 841.89 327.827"
	 xml:space="preserve">
<path fill-rule="evenodd" clip-rule="evenodd" fill="#2A2B2B" d="M30.308,311.671l8.516,2.616c-1.31,4.796-3.49,8.355-6.532,10.687
	c-3.041,2.32-6.893,3.485-11.565,3.485c-5.79,0-10.544-1.976-14.273-5.929c-3.723-3.956-5.587-9.356-5.587-16.222
	c0-7.247,1.876-12.885,5.616-16.898c3.741-4.016,8.669-6.023,14.771-6.023c5.332,0,9.66,1.581,12.985,4.736
	c1.988,1.864,3.468,4.54,4.461,8.039l-8.698,2.067c-0.517-2.25-1.59-4.037-3.224-5.343c-1.642-1.311-3.629-1.956-5.959-1.956
	c-3.234,0-5.86,1.153-7.869,3.478c-2.016,2.31-3.02,6.061-3.02,11.253c0,5.493,0.994,9.417,2.969,11.749
	c1.987,2.342,4.562,3.509,7.736,3.509c2.341,0,4.36-0.741,6.042-2.23C28.361,317.196,29.576,314.864,30.308,311.671L30.308,311.671z
	 M46.496,284.18h8.212v28.994l17.639-28.994h8.758v43.552h-8.209v-28.527l-17.643,28.527h-8.757V284.18L46.496,284.18z
	 M117.958,311.671l8.516,2.616c-1.31,4.796-3.49,8.355-6.531,10.687c-3.041,2.32-6.894,3.485-11.566,3.485
	c-5.79,0-10.544-1.976-14.274-5.929c-3.722-3.956-5.586-9.356-5.586-16.222c0-7.247,1.876-12.885,5.616-16.898
	c3.741-4.016,8.669-6.023,14.771-6.023c5.331,0,9.66,1.581,12.986,4.736c1.987,1.864,3.467,4.54,4.46,8.039l-8.698,2.067
	c-0.517-2.25-1.589-4.037-3.225-5.343c-1.64-1.311-3.628-1.956-5.959-1.956c-3.233,0-5.859,1.153-7.869,3.478
	c-2.017,2.31-3.019,6.061-3.019,11.253c0,5.493,0.994,9.417,2.969,11.749c1.988,2.342,4.562,3.509,7.736,3.509
	c2.34,0,4.36-0.741,6.041-2.23C116.012,317.196,117.227,314.864,117.958,311.671L117.958,311.671z M142.309,327.731v-36.194h-12.897
	v-7.357h34.549v7.357h-12.834v36.194H142.309L142.309,327.731z M169.667,327.731V284.18h32.241v7.357h-23.42v9.674h21.776v7.36
	h-21.776v11.799h24.272v7.361H169.667L169.667,327.731z M210.121,327.731V284.18h13.209l7.806,29.702l7.713-29.702h13.241v43.552
	h-8.149l-0.032-34.285l-8.587,34.285h-8.474l-8.547-34.285l-0.032,34.285H210.121L210.121,327.731z M261.155,284.18h8.818v17.396
	h11.749c3.083,0,5.739,0.427,7.96,1.266c2.222,0.843,4.076,2.344,5.564,4.511c1.48,2.172,2.221,4.664,2.221,7.484
	c0,2.95-0.77,5.482-2.313,7.623c-1.552,2.13-3.266,3.54-5.161,4.227c-1.884,0.701-4.65,1.046-8.291,1.046h-20.548V284.18
	L261.155,284.18z M269.974,320.37h8.578c2.726,0,4.63-0.133,5.717-0.395c1.076-0.264,2.039-0.874,2.879-1.814
	c0.84-0.943,1.257-2.088,1.257-3.448c0-1.925-0.691-3.377-2.057-4.338c-1.379-0.963-3.865-1.441-7.443-1.441h-8.931V320.37
	L269.974,320.37z M302.517,284.18h8.821v43.552h-8.821V284.18L302.517,284.18z M337.542,284.18h32.543v7.357h-23.722v10.099h11.749
	c3.234,0,5.931,0.395,8.061,1.188c2.14,0.786,3.963,2.249,5.475,4.389c1.511,2.127,2.271,4.633,2.271,7.501
	c0,2.939-0.761,5.465-2.292,7.563c-1.521,2.089-3.255,3.528-5.212,4.3c-1.947,0.771-4.726,1.156-8.322,1.156h-20.552V284.18
	L337.542,284.18z M346.364,320.37h8.547c2.725,0,4.653-0.133,5.757-0.395c1.104-0.264,2.079-0.86,2.9-1.805
	c0.82-0.935,1.228-2.089,1.228-3.458c0-1.997-0.719-3.444-2.152-4.36c-1.439-0.901-3.881-1.356-7.347-1.356h-8.932V320.37
	L346.364,320.37z M381.084,327.731V284.18h32.24v7.357h-23.419v9.674h21.775v7.36h-21.775v11.799h24.271v7.361H381.084
	L381.084,327.731z M427.863,296.039l-8.576-2.007c1.843-7.096,7.085-10.646,15.721-10.646c5.11,0,8.973,1.127,11.579,3.377
	c2.605,2.25,3.901,4.896,3.901,7.938c0,2.079-0.596,3.953-1.782,5.638c-1.186,1.672-2.972,3.143-5.344,4.42
	c2.881,0.992,5.048,2.392,6.489,4.206c1.438,1.827,2.158,4.055,2.158,6.724c0,3.83-1.397,6.923-4.206,9.285
	c-2.798,2.362-6.997,3.549-12.582,3.549c-4.553,0-8.151-0.761-10.786-2.281c-2.639-1.52-4.612-4.369-5.94-8.547l8.029-2.616
	c0.829,2.625,1.945,4.33,3.324,5.1c1.38,0.778,3.082,1.167,5.109,1.167c2.777,0,4.805-0.599,6.082-1.804
	c1.269-1.209,1.905-2.588,1.905-4.15c0-1.782-0.72-3.233-2.158-4.327c-1.43-1.096-3.599-1.642-6.489-1.642h-1.997v-6.571h1.007
	c2.685,0,4.741-0.605,6.161-1.815c1.43-1.204,2.138-2.816,2.138-4.814c0-1.593-0.575-2.931-1.73-4.023
	c-1.159-1.088-2.809-1.631-4.959-1.631C431.238,290.566,428.889,292.389,427.863,296.039L427.863,296.039z M457.14,306.217
	c0-4.438,0.669-8.172,1.997-11.189c0.985-2.223,2.342-4.221,4.055-5.982c1.713-1.766,3.591-3.074,5.628-3.934
	c2.718-1.146,5.85-1.725,9.398-1.725c6.429,0,11.558,1.999,15.42,5.982c3.851,3.994,5.78,9.538,5.78,16.646
	c0,7.044-1.919,12.559-5.739,16.534c-3.824,3.984-8.941,5.973-15.34,5.973c-6.478,0-11.638-1.978-15.459-5.942
	C459.057,318.625,457.14,313.174,457.14,306.217L457.14,306.217z M466.205,305.924c0,4.938,1.145,8.68,3.426,11.23
	c2.281,2.546,5.181,3.823,8.689,3.823c3.518,0,6.395-1.266,8.657-3.791c2.25-2.534,3.374-6.325,3.374-11.383
	c0-5-1.094-8.729-3.293-11.185c-2.189-2.464-5.103-3.688-8.738-3.688c-3.633,0-6.561,1.247-8.781,3.729
	C467.318,297.156,466.205,300.906,466.205,305.924L466.205,305.924z M506.402,284.18h34.608v43.552h-8.817v-36.194h-16.971v36.194
	h-8.82V284.18L506.402,284.18z M589.238,327.731h-9.5l-3.761-9.917H558.51l-3.62,9.917h-9.325l16.91-43.552h9.316L589.238,327.731
	L589.238,327.731z M573.119,310.454l-6.055-16.12l-5.877,16.12H573.119L573.119,310.454z M620.28,311.671l8.515,2.616
	c-1.311,4.796-3.49,8.355-6.531,10.687c-3.041,2.32-6.894,3.485-11.566,3.485c-5.789,0-10.544-1.976-14.272-5.929
	c-3.723-3.956-5.587-9.356-5.587-16.222c0-7.247,1.877-12.885,5.615-16.898c3.742-4.016,8.669-6.023,14.771-6.023
	c5.333,0,9.66,1.581,12.986,4.736c1.987,1.864,3.467,4.54,4.46,8.039l-8.698,2.067c-0.517-2.25-1.59-4.037-3.225-5.343
	c-1.64-1.311-3.626-1.956-5.958-1.956c-3.233,0-5.859,1.153-7.87,3.478c-2.015,2.31-3.018,6.061-3.018,11.253
	c0,5.493,0.993,9.417,2.968,11.749c1.987,2.342,4.563,3.509,7.737,3.509c2.34,0,4.359-0.741,6.041-2.23
	C618.333,317.196,619.547,314.864,620.28,311.671L620.28,311.671z M636.345,327.731V284.18h8.821v17.149h17.154V284.18h8.819v43.552
	h-8.819V308.69h-17.154v19.041H636.345L636.345,327.731z M678.448,306.217c0-4.438,0.668-8.172,1.997-11.189
	c0.983-2.223,2.34-4.221,4.053-5.982c1.714-1.766,3.592-3.074,5.629-3.934c2.716-1.146,5.85-1.725,9.397-1.725
	c6.428,0,11.558,1.999,15.419,5.982c3.853,3.994,5.78,9.538,5.78,16.646c0,7.044-1.919,12.559-5.739,16.534
	c-3.822,3.984-8.94,5.973-15.339,5.973c-6.478,0-11.64-1.978-15.459-5.942C680.363,318.625,678.448,313.174,678.448,306.217
	L678.448,306.217z M687.512,305.924c0,4.938,1.145,8.68,3.426,11.23c2.281,2.546,5.181,3.823,8.689,3.823
	c3.518,0,6.395-1.266,8.657-3.791c2.249-2.534,3.376-6.325,3.376-11.383c0-5-1.095-8.729-3.294-11.185
	c-2.19-2.464-5.102-3.688-8.739-3.688c-3.632,0-6.56,1.247-8.78,3.729C688.625,297.156,687.512,300.906,687.512,305.924
	L687.512,305.924z M755.447,311.671l8.515,2.616c-1.31,4.796-3.489,8.355-6.53,10.687c-3.041,2.32-6.894,3.485-11.565,3.485
	c-5.79,0-10.545-1.976-14.274-5.929c-3.721-3.956-5.586-9.356-5.586-16.222c0-7.247,1.876-12.885,5.615-16.898
	c3.742-4.016,8.668-6.023,14.771-6.023c5.333,0,9.661,1.581,12.986,4.736c1.988,1.864,3.468,4.54,4.461,8.039l-8.698,2.067
	c-0.518-2.25-1.59-4.037-3.225-5.343c-1.64-1.311-3.628-1.956-5.959-1.956c-3.233,0-5.858,1.153-7.869,3.478
	c-2.016,2.31-3.02,6.061-3.02,11.253c0,5.493,0.995,9.417,2.97,11.749c1.987,2.342,4.563,3.509,7.735,3.509
	c2.342,0,4.36-0.741,6.042-2.23C753.5,317.196,754.714,314.864,755.447,311.671L755.447,311.671z M779.797,327.731v-36.194h-12.898
	v-7.357h34.551v7.357h-12.835v36.194H779.797L779.797,327.731z M807.279,284.18h8.213v28.994l17.64-28.994h8.758v43.552h-8.21
	v-28.527l-17.642,28.527h-8.759V284.18z"/>
<path fill-rule="evenodd" clip-rule="evenodd" fill="#EF7C00" d="M1.318,0h40.543c0,53.715,0,101.587,0,155.3
	c0,28.075,25.063,51.714,55.522,51.714c0,13.533,0,27.069,0,40.604c-64.264,0-96.065-55.333-96.065-89.776V0z"/>
<path fill-rule="evenodd" clip-rule="evenodd" fill="#EF7C00" d="M486.521,0h40.543l0.04,58.402h56.228v41.207h-56.268V155.3
	c0,28.075,25.063,51.714,55.522,51.714c0,13.533,0,27.069,0,40.604c-64.264,0-96.065-55.333-96.065-89.776V0z"/>
<path fill-rule="evenodd" clip-rule="evenodd" fill="#EF7C00" d="M196.144,55.569c52.985,0,98.294,42.333,96.215,95.331
	c-0.643,24.679,20.579,56.113,56.189,56.113v40.602c-37.26,0.002-62.566-17.489-76.888-36.788
	c-17.557,22.397-44.858,36.79-75.516,36.79c-52.983,0-95.934-42.984-95.934-96.023C100.21,98.555,143.16,55.569,196.144,55.569
	L196.144,55.569z M195.908,96.082c-30.547,0-55.311,24.831-55.311,55.468c0,30.635,24.763,55.464,55.311,55.464
	c30.548,0,55.311-24.829,55.311-55.464C251.219,120.912,226.456,96.082,195.908,96.082z"/>
<path fill-rule="evenodd" clip-rule="evenodd" fill="#EF7C00" d="M689.246,56.403c52.984,0,98.294,42.332,96.215,95.331
	c-0.644,24.678,20.578,56.114,56.188,56.114v40.602c-37.258,0-62.564-17.488-76.887-36.787
	c-17.558,22.397-44.858,36.787-75.516,36.787c-52.984,0-95.933-42.983-95.933-96.021C593.313,99.389,636.262,56.403,689.246,56.403
	L689.246,56.403z M689.012,96.916c-30.55,0-55.312,24.83-55.312,55.466c0,30.637,24.762,55.466,55.312,55.466
	c30.547,0,55.311-24.829,55.311-55.466C744.322,121.746,719.559,96.916,689.012,96.916z"/>
<path fill-rule="evenodd" clip-rule="evenodd" fill="#EF7C00" d="M421.834,0h40.429c0,30.936-14.672,58.452-37.448,76.027
	c22.458,17.642,36.891,45.091,36.891,75.924c0,53.231-43.019,96.38-96.081,96.38v-40.429c30.688,0,55.569-24.882,55.569-55.575
	c0-30.694-24.881-55.576-55.569-55.576v-0.673C312.511,95.939,269.5,52.978,269.5,0h41.182c0,30.688,24.883,55.569,55.577,55.569
	C396.952,55.569,421.834,30.688,421.834,0z"/>
<path fill-rule="evenodd" clip-rule="evenodd" fill="#FFFFFF" d="M98.5-161.374"/>
</svg>
