<?xml version="1.0" encoding="iso-8859-1"?>
<!-- Generator: Adobe Illustrator 19.0.0, SVG Export Plug-In . SVG Version: 6.00 Build 0)  -->
<svg xmlns="http://www.w3.org/2000/svg" xmlns:xlink="http://www.w3.org/1999/xlink" version="1.1" id="Layer_1" x="0px" y="0px" viewBox="0 0 512 512" style="enable-background:new 0 0 512 512;" xml:space="preserve" width="512px" height="512px">
<g>
	<g>
		<path d="M482.969,0H29.031C13.024,0,0,13.024,0,29.031v453.938C0,498.976,13.024,512,29.031,512h453.938    C498.976,512,512,498.976,512,482.969V29.031C512,13.024,498.976,0,482.969,0z M496.165,482.969    c0,7.277-5.919,13.196-13.196,13.196H29.031c-7.277,0-13.196-5.919-13.196-13.196V29.031c0-7.277,5.919-13.196,13.196-13.196    h453.938c7.277,0,13.196,5.919,13.196,13.196V482.969z" fill="#FFFFFF"/>
	</g>
</g>
<g>
	<g>
		<path d="M290.309,163.629V52.784h-68.619v110.845h-26.392v68.619h26.392v226.969h68.619V232.247h26.392v-68.619H290.309z     M237.526,68.619h36.948v95.01h-36.948V68.619z M274.474,443.381h-36.948V232.247h36.948V443.381z M300.866,216.412h-89.732    v-36.948h89.732V216.412z" fill="#FFFFFF"/>
	</g>
</g>
<g>
	<g>
		<path d="M416.99,332.536V52.784h-68.619v279.753h-26.392v68.619h26.392v58.062h68.619v-58.062h26.392v-68.619H416.99z     M364.206,68.619h36.948v263.918h-36.948V68.619z M401.155,443.381h-36.948v-42.227h36.948V443.381z M427.546,385.32h-89.732    v-36.948h89.732V385.32z" fill="#FFFFFF"/>
	</g>
</g>
<g>
	<g>
		<path d="M163.629,279.753V52.784H95.01v226.969H68.619v68.619H95.01v110.845h68.619V348.371h26.392v-68.619H163.629z     M110.845,68.619h36.948v211.134h-36.948V68.619z M147.794,443.381h-36.948v-95.01h36.948V443.381z M174.186,332.536H84.454    v-36.948h89.732V332.536z" fill="#FFFFFF"/>
	</g>
</g>
<g>
	<g>
		<rect x="34.309" y="36.948" width="21.113" height="15.835" fill="#FFFFFF"/>
	</g>
</g>
<g>
	<g>
		<rect x="456.577" y="36.948" width="21.113" height="15.835" fill="#FFFFFF"/>
	</g>
</g>
<g>
	<g>
		<rect x="456.577" y="459.216" width="21.113" height="15.835" fill="#FFFFFF"/>
	</g>
</g>
<g>
	<g>
		<rect x="34.309" y="459.216" width="21.113" height="15.835" fill="#FFFFFF"/>
	</g>
</g>
<g>
</g>
<g>
</g>
<g>
</g>
<g>
</g>
<g>
</g>
<g>
</g>
<g>
</g>
<g>
</g>
<g>
</g>
<g>
</g>
<g>
</g>
<g>
</g>
<g>
</g>
<g>
</g>
<g>
</g>
</svg>
