<?xml version="1.0" encoding="iso-8859-1"?>
<!-- Generator: Adobe Illustrator 19.0.0, SVG Export Plug-In . SVG Version: 6.00 Build 0)  -->
<svg xmlns="http://www.w3.org/2000/svg" xmlns:xlink="http://www.w3.org/1999/xlink" version="1.1" id="Layer_1" x="0px" y="0px" viewBox="0 0 512 512" style="enable-background:new 0 0 512 512;" xml:space="preserve" width="512px" height="512px">
<g>
	<g>
		<g>
			<path d="M357.278,117.475h-12.193V34.708C345.085,15.57,329.514,0,310.377,0c-19.138,0-34.708,15.57-34.708,34.708v82.766     h-39.336V34.708C236.333,15.57,220.762,0,201.624,0s-34.708,15.57-34.708,34.708v82.766h-12.193     c-13.348,0-24.207,10.859-24.207,24.207v115.235c0,26.44,13.62,51.322,35.545,64.938c16.194,10.056,25.863,27.44,25.863,46.503     v1.242c0,28.596,23.099,51.888,51.617,52.225v24.011c0,5.897,4.781,10.68,10.68,10.68c5.898,0,10.68-4.782,10.68-10.68V421.84     h2.937c28.806,0,52.241-23.435,52.241-52.241v-0.697c0-12.772,4.373-25.002,11.949-34.629c1.357-1.707,2.407-2.833,4.097-4.626     c2.83-2.849,5.966-5.4,9.408-7.538c22.513-13.981,35.954-38.148,35.954-64.647v-115.78     C381.484,128.333,370.625,117.475,357.278,117.475z M297.027,34.708c0-7.361,5.988-13.349,13.349-13.349     s13.349,5.988,13.349,13.349v82.766h-26.699V34.708z M188.274,34.708c0-7.361,5.988-13.349,13.349-13.349     s13.349,5.988,13.349,13.349v82.766h-26.699V34.708z M360.125,257.461c0,19.062-9.668,36.446-25.863,46.503     c-4.834,3.002-9.262,6.554-13.233,10.547h-59.334c-5.898,0-10.68,4.782-10.68,10.68s4.781,10.68,10.68,10.68h44.416     c-4.78,10.168-7.393,21.45-7.393,33.032v0.697c0,17.029-13.853,30.882-30.882,30.882h-23.673     c-17.028,0-30.882-13.853-30.882-30.882v-1.242c0-26.5-13.44-50.668-35.954-64.647c-15.7-9.75-25.453-27.68-25.453-46.792     V141.682c0-1.571,1.277-2.848,2.848-2.848h202.555c1.57,0,2.848,1.277,2.848,2.848V257.461z" fill="#1996ce"/>
			<path d="M292.03,163.498c-4.17-4.169-10.933-4.169-15.104,0l-56.957,56.958c-3.054,3.054-3.967,7.648-2.314,11.639     c1.653,3.99,5.547,6.592,9.867,6.592h31.175l-37.303,37.302c-4.17,4.17-4.17,10.933,0,15.104     c2.086,2.085,4.819,3.128,7.552,3.128c2.733,0,5.467-1.043,7.551-3.128l55.533-55.533c3.054-3.054,3.967-7.648,2.314-11.639     c-1.653-3.99-5.547-6.592-9.867-6.592h-31.175l38.727-38.727C296.201,174.43,296.201,167.668,292.03,163.498z" fill="#1996ce"/>
			<path d="M254.22,472.841c-5.898,0-10.68,4.782-10.68,10.68v17.8c0,5.897,4.781,10.68,10.68,10.68     c5.898,0,10.68-4.782,10.68-10.68v-17.8C264.899,477.623,260.118,472.841,254.22,472.841z" fill="#1996ce"/>
		</g>
	</g>
</g>
<g>
</g>
<g>
</g>
<g>
</g>
<g>
</g>
<g>
</g>
<g>
</g>
<g>
</g>
<g>
</g>
<g>
</g>
<g>
</g>
<g>
</g>
<g>
</g>
<g>
</g>
<g>
</g>
<g>
</g>
</svg>
