<svg xmlns="http://www.w3.org/2000/svg" width="602" height="603" xmlns:xlink="http://www.w3.org/1999/xlink">
  <defs>
    <path id="a" d="M0 602h602V0H0z"/>
    <path id="c" d="M2.4.36C7.4.45 9.35 4.75 9.35 4.75c-2.84-.7-6.8 6.9-6.8 6.9C-1.75 5.02 1.82.38 1.82.38c.12 0 .23 0 .34-.02h.27z"/>
    <path id="e" d="M1.8.38s-3.57 4.64.75 11.26c0 0 3.95-7.6 6.8-6.9 0 0-2-4.38-7.08-4.38-.15 0-.3 0-.46.02z"/>
    <path id="g" d="M2.4.36C7.4.45 9.35 4.75 9.35 4.75c-2.84-.7-6.8 6.9-6.8 6.9C-1.75 5.02 1.82.38 1.82.38c.12 0 .23 0 .34-.02h.27z"/>
    <path id="i" d="M.37 4.84C2.6 5 4.72 7.18 4.72 7.18c1.3-.7 1.6-1.58 1.62-2.27v-.05c0-.63-.27-1.08-.27-1.08L2 .9C-.34 2.07.36 4.84.36 4.84z"/>
    <path id="k" d="M6.34 4.9c0 .7-.34 1.6-1.62 2.28 0 0-2.12-2.2-4.35-2.34 0 0-.7-2.77 1.62-3.94l4.07 2.87s.26.45.27 1.07v.07z"/>
    <path id="m" d="M2.4.36C7.4.45 9.35 4.75 9.35 4.75c-2.84-.7-6.8 6.9-6.8 6.9C-1.75 5.02 1.82.38 1.82.38c.12 0 .23 0 .34-.02h.27z"/>
    <path id="o" d="M1.8.38s-3.56 4.64.75 11.26c0 0 3.95-7.6 6.8-6.9 0 0-2-4.38-7.07-4.38-.16 0-.3 0-.47.02z"/>
    <path id="q" d="M2.4.36C7.4.45 9.35 4.75 9.35 4.75c-2.84-.7-6.8 6.9-6.8 6.9C-1.75 5.02 1.82.38 1.82.38c.12 0 .23 0 .34-.02h.27z"/>
    <path id="s" d="M.58 1.38V4.9l.4 1.03h.03c-.32-2.46 1.1-2.9 1.1-2.9 1.74-1.1 0-2.3 0-2.3-.62.25-1.14.48-1.52.65z"/>
    <path id="u" d="M1.73.7c-.57.34-.9.9-.93 1.46-.02.27.04.55.2.8.3.55.94.8 1.58.73.24-.04.5-.12.7-.25.86-.48 1.6-1.52 1.16-2.27C4.24.85 3.02.64 2.26.64c-.25 0-.44.02-.53.07z"/>
    <path id="w" d="M1.73.7c-.57.34-.9.9-.93 1.46-.02.27.04.55.2.8.3.55.94.8 1.58.73.24-.04.5-.12.7-.25.86-.48 1.6-1.52 1.16-2.27C4.24.85 3.02.64 2.26.64c-.25 0-.44.02-.53.07z"/>
    <path id="y" d="M0 602h602V0H0z"/>
  </defs>
  <g fill="none" fill-rule="evenodd">
    <path fill="#F4F6F8" d="M.5 602.5h601V1.5H.5"/>
    <path fill="#F4F6F8" d="M0 1v602h602V1H0zm1 601h600V2H1v600z"/>
    <g stroke="#869094">
      <path d="M1 404.5h600M1 400.5h600"/>
    </g>
    <path fill="#FFF" d="M289.5 404.5h149v-259h-149"/>
    <path fill="#869094" d="M289 405h150V145H289v260zm1-1h148V146H290v258z"/>
    <path fill="#FFF" d="M294.5 404.5h139v-254h-139"/>
    <path fill="#869094" d="M294 405h140V150H294v255zm1-1h138V151H295v253z"/>
    <g transform="translate(0 1)">
      <path fill="#869094" d="M363 216c-1.66 0-3 1.34-3 3s1.34 3 3 3 3-1.34 3-3-1.34-3-3-3zm0 1c1.1 0 2 .9 2 2s-.9 2-2 2-2-.9-2-2 .9-2 2-2zM309.5 282c-3.04 0-5.5 2.46-5.5 5.5s2.46 5.5 5.5 5.5 5.5-2.46 5.5-5.5-2.46-5.5-5.5-5.5m0 1c2.48 0 4.5 2.02 4.5 4.5s-2.02 4.5-4.5 4.5-4.5-2.02-4.5-4.5 2.02-4.5 4.5-4.5"/>
      <path fill="#FFF" d="M309.5 289.5c-1.1 0-2-.9-2-2s.9-2 2-2h13.4c1.1 0 2 .9 2 2s-.9 2-2 2h-13.4z"/>
      <path fill="#869094" d="M322.9 285h-13.4c-1.38 0-2.5 1.13-2.5 2.5 0 1.38 1.12 2.5 2.5 2.5h13.4c1.37 0 2.5-1.13 2.5-2.5 0-1.38-1.13-2.5-2.5-2.5m0 1c.83 0 1.5.67 1.5 1.5s-.67 1.5-1.5 1.5h-13.4c-.83 0-1.5-.67-1.5-1.5s.67-1.5 1.5-1.5h13.4"/>
      <path fill="#E2E2E3" d="M306 160.5c-2.07 0-2.5-.6-2.5-1.5v-9.5h22v9.5c0 .9-.43 1.5-2.5 1.5h-17z"/>
      <path fill="#869094" d="M326 149h-23v10c0 1.65 1.35 2 3 2h17c1.65 0 3-.35 3-2v-10zm-1 1v9c0 .44 0 1-2 1h-17c-2 0-2-.56-2-1v-9h21z"/>
      <path fill="#E2E2E3" d="M303.5 149.5V147c0-2.07.6-2.5 1.5-2.5h19c.9 0 1.5.43 1.5 2.5v2.5h-22z"/>
      <path fill="#869094" d="M324 144h-19c-1.65 0-2 1.35-2 3v3h23v-3c0-1.65-.35-3-2-3m0 1c.44 0 1 0 1 2v2h-21v-2c0-2 .56-2 1-2h19"/>
      <path fill="#FFF" d="M313 152.5c-.28 0-.5-.22-.5-.5s.22-.5.5-.5h3c.28 0 .5.22.5.5s-.22.5-.5.5h-3z"/>
      <path fill="#869094" d="M316 151h-3c-.55 0-1 .45-1 1s.45 1 1 1h3c.55 0 1-.45 1-1s-.45-1-1-1"/>
      <path fill="#FFF" d="M384.1 98.85c-14.6 3.28-35.23 2.74-45.68-1.2-10.26-3.85-6.6-9.44 7.8-12.5 14.18-3.02 33.84-2.53 44.3 1.1 10.64 3.72 7.96 9.36-6.4 12.6"/>
      <path stroke="#869094" d="M384.1 98.85c-14.6 3.28-35.23 2.74-45.68-1.2-10.26-3.85-6.6-9.44 7.8-12.5 14.18-3.02 33.84-2.53 44.3 1.1 10.64 3.72 7.96 9.36-6.4 12.6z" stroke-linecap="round" stroke-linejoin="round"/>
      <path fill="#FFF" d="M396.45 85.97c-1.2-2.86-3-5.57-4.48-8.3l-4.5-8.3c-1.5-2.76-2.97-5.53-4.48-8.3-.76-1.36-1.47-2.76-2.22-4.13-.7-1.32-1.33-3-2.27-4.15-.48-1.9-4.06-2.43-5.66-2.72-2.68-.5-5.42-.62-8.14-.57-2.72.06-5.46.3-8.12.9-1.52.35-5.04 1-5.5 2.9-.95 1.2-1.6 2.88-2.3 4.24-.74 1.4-1.47 2.82-2.2 4.23-1.5 2.8-3 5.6-4.48 8.42-1.48 2.8-3 5.6-4.46 8.42-1.47 2.8-3.17 5.54-4.47 8.42-4.92 7.24 19.38 9.6 22.68 9.8 5.8.36 11.63.27 17.4-.27 5.7-.54 11.55-1.42 16.94-3.43 2.4-.9 8.67-3.54 6.25-7.17-.08-.2.32.77 0 0"/>
      <path stroke="#869094" d="M396.45 85.97c-1.2-2.86-3-5.57-4.48-8.3l-4.5-8.3c-1.5-2.76-2.97-5.53-4.48-8.3-.76-1.36-1.47-2.76-2.22-4.13-.7-1.32-1.33-3-2.27-4.15-.48-1.9-4.06-2.43-5.66-2.72-2.68-.5-5.42-.62-8.14-.57-2.72.06-5.46.3-8.12.9-1.52.35-5.04 1-5.5 2.9-.95 1.2-1.6 2.88-2.3 4.24-.74 1.4-1.47 2.82-2.2 4.23-1.5 2.8-3 5.6-4.48 8.42-1.48 2.8-3 5.6-4.46 8.42-1.47 2.8-3.17 5.54-4.47 8.42-4.92 7.24 19.38 9.6 22.68 9.8 5.8.36 11.63.27 17.4-.27 5.7-.54 11.55-1.42 16.94-3.43 2.4-.9 8.67-3.54 6.25-7.17-.08-.2.32.77 0 0z" stroke-linecap="round" stroke-linejoin="round"/>
      <path fill="#FFF" d="M372.9 56.14c-6.13 1.38-14.8 1.16-19.2-.5-4.3-1.62-2.75-3.96 3.3-5.25 5.95-1.28 14.2-1.07 18.6.46 4.47 1.56 3.34 3.93-2.7 5.28"/>
      <path stroke="#869094" d="M372.9 56.14c-6.13 1.38-14.8 1.16-19.2-.5-4.3-1.62-2.75-3.96 3.3-5.25 5.95-1.28 14.2-1.07 18.6.46 4.47 1.56 3.34 3.93-2.7 5.28z" stroke-linecap="round" stroke-linejoin="round"/>
      <path fill="#E2E2E3" d="M361.5 69.05V65c.02 0 .5-.5 3.27-.5 2.37 0 3.5.37 3.73.58v3.97h-7z"/>
      <path fill="#869094" d="M364.77 64c-2.6 0-3.77.45-3.77 1v4.55h8V65c0-.55-1.64-1-4.23-1m0 1c1.84 0 2.83.23 3.23.38v3.17h-6v-3.23c.3-.1 1.04-.32 2.77-.32"/>
      <path fill="#E2E2E3" d="M356.86 84.08l4.62-14.85v-.06c.25-.22 1.5-.6 3.55-.6 2.06 0 3.3.38 3.54.6v.06l4.57 14.85h-16.28z"/>
      <path fill="#869094" d="M365.03 68.06c-2.23 0-4.03.46-4.03 1.02l-4.82 15.5h17.64l-4.76-15.5c0-.56-1.8-1.02-4.03-1.02m0 1c1.62 0 2.73.26 3.1.44l4.33 14.08h-14.92l4.38-14.08c.38-.18 1.5-.44 3.1-.44"/>
      <path fill="#E2E2E3" d="M358.52 89.46l-1.82-4.92c.4-.65 4.42-1.95 8.53-1.95 4.23 0 7.73 1.32 8.07 1.94l-1.76 4.92h-13.02z"/>
      <path fill="#869094" d="M365.23 82.1c-4.27 0-9.05 1.4-9.05 2.48l2 5.38h13.72l1.92-5.38c0-1.08-4.32-2.5-8.6-2.5m0 1c3.62 0 6.7 1.02 7.5 1.6l-1.53 4.28h-12.34l-1.56-4.26c.94-.63 4.4-1.6 7.93-1.6"/>
      <path fill="#E2E2E3" d="M365 91.5c-3.93 0-6.43-1.2-6.43-2s2.5-2 6.43-2c3.93 0 6.43 1.2 6.43 2s-2.5 2-6.43 2"/>
      <path fill="#869094" d="M365 87c-3.83 0-6.93 1.12-6.93 2.5s3.1 2.5 6.93 2.5c3.83 0 6.93-1.12 6.93-2.5S368.83 87 365 87m0 1c3.8 0 5.82 1.1 5.94 1.48-.12.42-2.13 1.52-5.94 1.52-3.8 0-5.82-1.1-5.94-1.48.12-.42 2.13-1.52 5.94-1.52"/>
      <path stroke="#869094" d="M364.5 1.5v63M366.5 1.5v62" stroke-linecap="round" stroke-linejoin="round"/>
      <path fill="#E2E2E3" d="M71.5 412.5c-8.5 0-14.44-2.2-14.65-4.27-.02-.2-.16-.36-.35-.42v-5.07h29.98v5.08c-.2.07-.33.23-.35.43-.22 2.06-6.15 4.27-14.64 4.27"/>
      <path fill="#869094" d="M86.98 402.22H56v6.07h.35c.28 2.6 6.95 4.7 15.14 4.7 8.18 0 14.85-2.1 15.13-4.7h.35v-6.08zm-1 1v4.3c-.2.17-.32.4-.34.66-.15 1.37-5 3.82-14.15 3.82-9.16 0-14-2.45-14.16-3.82-.02-.26-.15-.5-.34-.65v-4.3h28.98z"/>
      <path fill="#E2E2E3" d="M86.64 401.38c0 2.7-6.78 4.88-15.15 4.88-8.38 0-15.16-2.18-15.16-4.88 0-2.7 6.78-4.88 15.15-4.88 8.36 0 15.14 2.2 15.14 4.88"/>
      <path stroke="#869094" d="M86.64 401.38c0 2.7-6.78 4.88-15.15 4.88-8.38 0-15.16-2.18-15.16-4.88 0-2.7 6.78-4.88 15.15-4.88 8.36 0 15.14 2.2 15.14 4.88z" stroke-linecap="round" stroke-linejoin="round"/>
      <path stroke="#869094" d="M81.5 401.38c0 1.78-4.48 3.23-10 3.23-5.54 0-10.02-1.44-10.02-3.22 0-1.78 4.48-3.22 10-3.22 5.54 0 10.02 1.44 10.02 3.22z" stroke-linecap="round" stroke-linejoin="round"/>
      <path stroke="#869094" d="M75.2 401.38c0 .66-1.66 1.2-3.7 1.2-2.06 0-3.7-.54-3.7-1.2 0-.66 1.64-1.2 3.7-1.2 2.04 0 3.7.54 3.7 1.2zM.5 369.5h63v-3h-40v-43h40v-3H.5" stroke-linecap="round" stroke-linejoin="round"/>
      <path stroke="#869094" d="M.5 323.5h20v43H.5M156.5 362.5h-3v10h3c.55 0 1-.45 1-1v-8c0-.55-.45-1-1-1zM156.5 317.5h-3v10h3c.55 0 1-.45 1-1v-8c0-.55-.45-1-1-1z" stroke-linecap="round" stroke-linejoin="round"/>
      <path fill="#FFF" d="M151.5 381.5h-93c-1.66 0-3-1.34-3-3v-66c0-1.66 1.34-3 3-3h93c1.66 0 3 1.34 3 3v66c0 1.66-1.34 3-3 3"/>
      <path stroke="#869094" d="M151.5 381.5h-93c-1.66 0-3-1.34-3-3v-66c0-1.66 1.34-3 3-3h93c1.66 0 3 1.34 3 3v66c0 1.66-1.34 3-3 3zM68.5 310.5v71M84.5 310.5v71M98.5 310.5v71M112.5 310.5v71M126.5 310.5v71M140.5 310.5v71" stroke-linecap="round" stroke-linejoin="round"/>
      <path fill="#E2E2E3" d="M192 62.73c0 7.46-6.04 13.5-13.5 13.5S165 70.2 165 62.73s6.04-13.5 13.5-13.5 13.5 6.04 13.5 13.5"/>
      <path stroke="#869094" d="M192 62.73c0 7.46-6.04 13.5-13.5 13.5S165 70.2 165 62.73s6.04-13.5 13.5-13.5 13.5 6.04 13.5 13.5z" stroke-linecap="round" stroke-linejoin="round"/>
      <path stroke="#869094" d="M178.5 61.14c-.88 0-1.6.7-1.6 1.6 0 .87.72 1.58 1.6 1.58.87 0 1.6-.7 1.6-1.6 0-.87-.73-1.58-1.6-1.58"/>
      <path stroke="#869094" d="M180.73 57.46c-.1.43-.55.68-.97.57-.43-.12-.68-.55-.56-.98.1-.42.55-.67.97-.56.42.1.67.54.56.96zM183.06 59.3c-.3.3-.8.3-1.12 0-.3-.32-.3-.83 0-1.14.3-.3.8-.3 1.12 0 .3.3.3.82 0 1.13zM184.17 62.03c-.42.1-.86-.14-.97-.56-.1-.42.14-.86.56-.97.43-.12.86.13.98.56.1.42-.14.86-.57.97zM183.76 64.96c-.42-.1-.67-.55-.56-.97.1-.43.55-.7.97-.57.43.1.68.55.57.97-.12.42-.55.68-.98.56zM181.94 67.3c-.3-.3-.3-.82 0-1.13.3-.3.8-.3 1.12 0 .3.3.3.82 0 1.13-.3.3-.8.3-1.12 0zM179.2 68.4c-.12-.42.13-.85.56-.97.42-.1.86.14.97.56.1.42-.14.85-.56.97-.43.1-.86-.14-.97-.56zM176.26 68c.12-.43.55-.68.98-.57.42.12.67.55.56.98-.1.43-.55.68-.97.57-.43-.12-.68-.55-.57-.97zM173.93 66.17c.3-.3.8-.3 1.13 0 .3.3.3.82 0 1.13-.32.3-.82.3-1.13 0-.3-.3-.3-.82 0-1.13zM172.82 63.43c.43-.12.86.14.97.56.1.4-.14.85-.57.96-.42.12-.86-.14-.97-.56-.1-.42.14-.86.56-.97zM173.23 60.5c.43.1.68.55.56.97-.12.42-.56.67-.98.56-.42-.1-.67-.55-.56-.97.1-.43.55-.68.97-.56zM175.05 58.16c.3.3.3.82 0 1.13-.3.3-.8.3-1.12 0-.3-.32-.3-.83 0-1.14.3-.3.8-.3 1.12 0zM177.8 57.05c.1.43-.14.86-.56.98-.43.1-.86-.14-.98-.57-.1-.42.14-.85.57-.97.42-.12.86.13.97.55zM182.38 53.57c-.2.74-.95 1.17-1.7.98-.73-.2-1.17-.96-.97-1.7.2-.74.97-1.17 1.7-.98.74.2 1.18.96.98 1.7zM186.44 56.74c-.54.54-1.4.54-1.95 0s-.55-1.42 0-1.96c.53-.54 1.4-.54 1.94 0s.54 1.42 0 1.96zM188.37 61.5c-.73.2-1.5-.23-1.7-.96-.2-.74.25-1.5 1-1.7.73-.2 1.48.24 1.68.98.2.74-.24 1.5-.98 1.7zM187.66 66.62c-.74-.2-1.18-.96-.98-1.7.2-.74.96-1.17 1.7-.97.73.2 1.17.95.97 1.7-.2.72-.95 1.16-1.7.97zM184.5 70.68c-.55-.54-.55-1.42 0-1.96.53-.54 1.4-.54 1.94 0s.54 1.42 0 1.96c-.53.54-1.4.54-1.95 0zM179.7 72.6c-.18-.73.25-1.5 1-1.7.73-.18 1.48.25 1.68 1 .2.73-.24 1.5-.97 1.68-.73.2-1.5-.24-1.7-.97zM174.6 71.9c.2-.75.97-1.18 1.7-1 .74.2 1.18.97.98 1.7-.2.74-.95 1.18-1.7.98-.73-.2-1.17-.95-.97-1.7zM170.55 68.72c.54-.54 1.42-.54 1.96 0 .55.54.55 1.42 0 1.96-.53.54-1.4.54-1.95 0-.54-.54-.54-1.42 0-1.96zM168.62 63.94c.74-.2 1.5.24 1.7.98.2.74-.25 1.5-.98 1.7-.74.2-1.5-.24-1.7-.98-.2-.74.24-1.5.98-1.7zM169.34 58.84c.73.2 1.17.96.97 1.7-.18.73-.94 1.17-1.68.97-.74-.18-1.18-.94-.98-1.68.2-.74.96-1.17 1.7-.98zM172.5 54.78c.55.54.55 1.42 0 1.96-.53.54-1.4.54-1.95 0-.54-.54-.54-1.42 0-1.96s1.42-.54 1.96 0zM177.28 52.85c.2.74-.24 1.5-.98 1.7-.73.2-1.5-.24-1.7-.98-.2-.74.25-1.5 1-1.7.73-.2 1.48.25 1.68.98z" stroke-linecap="round" stroke-linejoin="round"/>
      <path fill="#FFF" d="M495.5 385.5h-15c-.55 0-1-.45-1-1v-15c0-.55.45-1 1-1h15c.55 0 1 .45 1 1v15c0 .55-.45 1-1 1"/>
      <path stroke="#869094" d="M495.5 385.5h-15c-.55 0-1-.45-1-1v-15c0-.55.45-1 1-1h15c.55 0 1 .45 1 1v15c0 .55-.45 1-1 1z" stroke-linecap="round" stroke-linejoin="round"/>
      <path fill="#E2E2E3" d="M493.5 377c0 3.04-2.46 5.5-5.5 5.5s-5.5-2.46-5.5-5.5 2.46-5.5 5.5-5.5 5.5 2.46 5.5 5.5"/>
      <path stroke="#869094" d="M493.5 377c0 3.04-2.46 5.5-5.5 5.5s-5.5-2.46-5.5-5.5 2.46-5.5 5.5-5.5 5.5 2.46 5.5 5.5z" stroke-linecap="round" stroke-linejoin="round"/>
      <path fill="#E2E2E3" d="M490.48 374.52c1.36 1.37 1.36 3.6 0 4.95-1.37 1.37-3.6 1.37-4.95 0-1.37-1.36-1.37-3.58 0-4.95 1.36-1.36 3.58-1.36 4.95 0"/>
      <path stroke="#869094" d="M490.48 374.52c1.36 1.37 1.36 3.6 0 4.95-1.37 1.37-3.6 1.37-4.95 0-1.37-1.36-1.37-3.58 0-4.95 1.36-1.36 3.58-1.36 4.95 0z" stroke-linecap="round" stroke-linejoin="round"/>
      <path stroke="#869094" d="M488.27 376.2c-2.68 1.32-2.7 5.23-2.7 8.55 0 3.33.94 8.77-2.75 10.75-4.42 2.38-7.3 7.2.88 9.74 5.63 1.73 43.26 9.88 29.3 18.15" stroke-linecap="round" stroke-linejoin="round"/>
      <path fill="#FFF" d="M517.77 387.64c2.43 2.08 5 5.97 6.8 9.38 1.8 3.4 2.24 6.37 2.4 10 .18 4.15-.45 8.14-.72 9.95-.25 1.66-.3 3.27-1.16 4.5-1.48 2.1-4.43 4.22-6.35 5.35-.93.54-2.04.76-3.27.48-2.62-.6-6.07-2.2-7-2.84-.66-.46-1.54-1.2-1.6-2.02-.1-1.2.06-3.75.06-3.75l10.83-31.06z"/>
      <path stroke="#869094" d="M517.77 387.64c2.43 2.08 5 5.97 6.8 9.38 1.8 3.4 2.24 6.37 2.4 10 .18 4.15-.45 8.14-.72 9.95-.25 1.66-.3 3.27-1.16 4.5-1.48 2.1-4.43 4.22-6.35 5.35-.93.54-2.04.76-3.27.48-2.62-.6-6.07-2.2-7-2.84-.66-.46-1.54-1.2-1.6-2.02-.1-1.2.06-3.75.06-3.75l10.83-31.06z" stroke-linecap="round" stroke-linejoin="round"/>
      <path fill="#FFF" d="M516.43 388.2c-4.25 4.88-7.9 11.43-9.7 19.66-.6 2.66-.86 4.57-.97 5.9-.1 1-.16 2.7-.15 3.07.03.62.24 1.2.95 1.67 1.2.8 6.2 2.98 8.32 3.32.7.1 1.83.13 2.12-1.14.3-1.37 1.54-7.48 2.07-13.82.52-6.2.7-11.45-.7-17.7-.34-1.54-.8-2.26-1.94-.95"/>
      <path stroke="#869094" d="M516.43 388.2c-4.25 4.88-7.9 11.43-9.7 19.66-.6 2.66-.86 4.57-.97 5.9-.1 1-.16 2.7-.15 3.07.03.62.24 1.2.95 1.67 1.2.8 6.2 2.98 8.32 3.32.7.1 1.83.13 2.12-1.14.3-1.37 1.54-7.48 2.07-13.82.52-6.2.7-11.45-.7-17.7-.34-1.54-.8-2.26-1.94-.95zM524.6 405.04c.3 2.53-.2 9.97-.6 11.5-.2.83-1.26 1.64-2 .95-.63-.6-.4-1.4-.34-2.84.08-1.63.35-6.6.4-8.5 0-1.28.38-1.98.9-2.25.7-.35 1.54.2 1.65 1.14z" stroke-linecap="round" stroke-linejoin="round"/>
      <mask id="b" fill="#fff">
        <use xlink:href="#a"/>
      </mask>
      <path fill="#FFF" d="M33.5 250.5h194v-5h-194" mask="url(#b)"/>
      <path stroke="#869094" d="M33.5 250.5h194v-5h-194z" stroke-linecap="round" stroke-linejoin="round" mask="url(#b)"/>
      <path fill="#FFF" d="M33.5 212.5h97v-5h-97" mask="url(#b)"/>
      <path stroke="#869094" d="M33.5 212.5h97v-5h-97z" stroke-linecap="round" stroke-linejoin="round" mask="url(#b)"/>
      <path fill="#FFF" d="M249 551.5c-17.14 0-30.57-5.1-30.57-11.62s13.43-11.62 30.57-11.62 30.57 5.1 30.57 11.62S266.14 551.5 249 551.5" mask="url(#b)"/>
      <path fill="#869094" d="M249 527.76c-17.42 0-31.07 5.32-31.07 12.12 0 6.8 13.65 12.12 31.07 12.12s31.07-5.32 31.07-12.12c0-6.8-13.65-12.12-31.07-12.12m0 1c16.6 0 30.07 4.98 30.07 11.12 0 6.14-13.46 11.12-30.07 11.12-16.6 0-30.07-4.98-30.07-11.12 0-6.14 13.46-11.12 30.07-11.12" mask="url(#b)"/>
      <path fill="#FFF" d="M249 547.36c-17.14 0-30.57-5.1-30.57-11.62s13.43-11.62 30.57-11.62 30.57 5.1 30.57 11.62c0 6.5-13.43 11.62-30.57 11.62" mask="url(#b)"/>
      <path fill="#869094" d="M249 523.62c-17.42 0-31.07 5.32-31.07 12.12 0 6.8 13.65 12.12 31.07 12.12s31.07-5.33 31.07-12.12c0-6.8-13.65-12.12-31.07-12.12m0 1c16.6 0 30.07 4.98 30.07 11.12 0 6.14-13.46 11.12-30.07 11.12-16.6 0-30.07-4.98-30.07-11.12 0-6.14 13.46-11.12 30.07-11.12" mask="url(#b)"/>
      <path fill="#FFF" d="M249 536.5c-4.67 0-8.02-1.33-8.45-2.56l-.05-.16v-39h17v39.07l-.05.1c-.43 1.22-3.78 2.56-8.45 2.56" mask="url(#b)"/>
      <path fill="#869094" d="M258 494.27h-18v39.83h.08c.56 1.64 4.34 2.9 8.92 2.9s8.36-1.26 8.92-2.9h.08v-39.83zm-1 1v38.43l-.03.08c-.3.9-3.33 2.23-7.97 2.23s-7.66-1.3-7.97-2.22l-.03-.08v-38.43h16z" mask="url(#b)"/>
      <path fill="#FFF" d="M249 505.3c-29.34 0-56.94-3.07-77.7-8.64-20.95-5.62-32.5-13.17-32.5-21.28 0-8.1 11.55-15.66 32.5-21.27 20.76-5.56 48.36-8.63 77.7-8.63 29.34 0 56.94 3.07 77.7 8.64 20.95 5.62 32.5 13.18 32.5 21.28 0 8.1-11.55 15.66-32.5 21.28-20.76 5.57-48.36 8.63-77.7 8.63" mask="url(#b)"/>
      <path fill="#869094" d="M249 444.97c-29.38 0-57.02 3.08-77.82 8.65-21.2 5.7-32.87 13.4-32.87 21.76 0 8.36 11.68 16.08 32.88 21.77 20.8 5.57 48.44 8.64 77.82 8.64 29.38 0 57.02-3.08 77.82-8.65 21.2-5.7 32.87-13.4 32.87-21.77 0-8.35-11.68-16.07-32.88-21.76-20.8-5.57-48.44-8.65-77.82-8.65m0 1c60.58 0 109.7 13.17 109.7 29.4 0 16.26-49.12 29.42-109.7 29.42-60.58 0-109.7-13.17-109.7-29.42 0-16.24 49.12-29.4 109.7-29.4" mask="url(#b)"/>
      <path fill="#FFF" d="M249 501.32c-29.34 0-56.94-3.06-77.7-8.63-20.95-5.63-32.5-13.2-32.5-21.3 0-8.1 11.55-15.65 32.5-21.27 20.76-5.56 48.36-8.63 77.7-8.63 29.34 0 56.94 3.07 77.7 8.63 20.95 5.62 32.5 13.18 32.5 21.28 0 8.1-11.55 15.67-32.5 21.3-20.76 5.56-48.36 8.62-77.7 8.62" mask="url(#b)"/>
      <path fill="#869094" d="M249 441c-29.38 0-57.02 3.07-77.82 8.65-21.2 5.68-32.87 13.4-32.87 21.76 0 8.36 11.68 16.1 32.88 21.77 20.8 5.58 48.44 8.65 77.82 8.65 29.38 0 57.02-3.07 77.82-8.65 21.2-5.68 32.87-13.4 32.87-21.76 0-8.34-11.68-16.07-32.88-21.75-20.8-5.58-48.44-8.65-77.82-8.65m0 1c60.58 0 109.7 13.17 109.7 29.4 0 16.25-49.12 29.42-109.7 29.42-60.58 0-109.7-13.17-109.7-29.4 0-16.25 49.12-29.42 109.7-29.42" mask="url(#b)"/>
      <path fill="#FFF" d="M440.34 476.74s-2.12-4.64-7.53-4.36c0 0-3.57 4.64.75 11.26 0 0 3.95-7.6 6.8-6.9" mask="url(#b)"/>
    </g>
    <g transform="translate(431 473)">
      <mask id="d" fill="#fff">
        <use xlink:href="#c"/>
      </mask>
      <path fill="#FFF" d="M-16.53 14.12H9.6V.36h-26.13" mask="url(#d)"/>
    </g>
    <g transform="translate(431 473)">
      <mask id="f" fill="#fff">
        <use xlink:href="#e"/>
      </mask>
      <path fill="#FFF" d="M-6.46 18.52H16.2V-6.5H-6.45" mask="url(#f)"/>
      <path stroke="#869094" d="M-6.46 18.52H16.2V-6.5H-6.45z" mask="url(#f)"/>
    </g>
    <g transform="translate(431 473)">
      <mask id="h" fill="#fff">
        <use xlink:href="#g"/>
      </mask>
      <path stroke="#869094" d="M-16.53 14.12H9.6V.36h-26.13z" mask="url(#h)"/>
    </g>
    <path stroke="#869094" d="M440.34 477.74s-2.12-4.64-7.53-4.36c0 0-3.57 4.64.75 11.26 0 0 3.95-7.6 6.8-6.9"/>
    <path fill="#FFF" d="M494.47 538.28s1.88-2.35 1.6-6.82c0 0-4.9-7-5.74-15.97-.1-1.2-.62-2.45-.94-3.73-.14-1.06-.24-2.12-.28-3.2 2.13-.35 5.02-.13 6.72.85 1.46.84 2.44 1.97 3.13 3.3l-1.24 4.86s-.7 4.14 2.42 6.83c0 0 1.35 1.24 1.36 2.36l-2.5 14.76h-7.16s.03-1.67 2.63-3.24"/>
    <path stroke="#869094" d="M494.47 538.28s1.88-2.35 1.6-6.82c0 0-4.9-7-5.74-15.97-.1-1.2-.62-2.45-.94-3.73-.14-1.06-.24-2.12-.28-3.2 2.13-.35 5.02-.13 6.72.85 1.46.84 2.44 1.97 3.13 3.3l-1.24 4.86s-.7 4.14 2.42 6.83c0 0 1.35 1.24 1.36 2.36l-2.5 14.76h-7.16s.03-1.67 2.63-3.24z" stroke-linecap="round" stroke-linejoin="round"/>
    <path fill="#FFF" d="M444.4 534.4s1.9-6.78 1.27-18.52c0 0-.47-2.47-.64-3.6l-.03-.3h.57c2.93.16 7.18 1.13 8.3 4.05l-6.44 21.94h-6.6s.3-2 3.57-3.58"/>
    <path stroke="#869094" d="M444.4 534.4s1.9-6.78 1.27-18.52c0 0-.47-2.47-.64-3.6l-.03-.3h.57c2.93.16 7.18 1.13 8.3 4.05l-6.44 21.94h-6.6s.3-2 3.57-3.58z" stroke-linecap="round" stroke-linejoin="round"/>
    <path fill="#FFF" d="M427.14 481.44s3.37-1.7 3.73-3.97c0 0 3.12-4.2 10.7-2.53 2.85.64 5.55 1.7 8.87 7.7.88 1.58 4.4 8.7 11.4 12.57l3.47 1.35 5.93 1 24.48-.67s5.93.45 9.5 1.9c0 0 6.15 1.46 7.94-3.35 0 0 1.9-3.8 1.35-9.3 0 0-.58-5.13 2.44-2.78 0 0 5.48 5.78.45 15.64 0 0-4.03 6.17-10.52 5.94l2.02 7.6-1.46 8.74s-.33 4.13 3.02 6.82c0 0 1.45 1.23 1.57 2.35l-1.23 14.77h-7.16s-.1-1.68 2.35-3.25c0 0 1.67-2.35 1-6.82l-10.06-9.5-6.15-7.73s-20.2 5.3-31.08 4.92l-4.55 22.2h-6.6s.12-2 3.25-3.57c0 0 1.3-6.77-.37-18.52 0 0-5.14-3.7-8.6-15.2 0 0-.84-6.25-4.97-14.07 0 0-2.45-2.87-8.2-2.38l-3.26.12s-5.76 1.56-7.08-7.1c0 0 3.72-1.8 7.8-2.88"/>
    <path stroke="#869094" d="M427.14 481.44s3.37-1.7 3.73-3.97c0 0 3.12-4.2 10.7-2.53 2.85.64 5.55 1.7 8.87 7.7.88 1.58 4.4 8.7 11.4 12.57l3.47 1.35 5.93 1 24.48-.67s5.93.45 9.5 1.9c0 0 6.15 1.46 7.94-3.35 0 0 1.9-3.8 1.35-9.3 0 0-.58-5.13 2.44-2.78 0 0 5.48 5.78.45 15.64 0 0-4.03 6.17-10.52 5.94l2.02 7.6-1.46 8.74s-.33 4.13 3.02 6.82c0 0 1.45 1.23 1.57 2.35l-1.23 14.77h-7.16s-.1-1.68 2.35-3.25c0 0 1.67-2.35 1-6.82l-10.06-9.5-6.15-7.73s-20.2 5.3-31.08 4.92l-4.55 22.2h-6.6s.12-2 3.25-3.57c0 0 1.3-6.77-.37-18.52 0 0-5.14-3.7-8.6-15.2 0 0-.84-6.25-4.97-14.07 0 0-2.45-2.87-8.2-2.38l-3.26.12s-5.76 1.56-7.08-7.1c0 0 3.72-1.8 7.8-2.88z" stroke-linecap="round" stroke-linejoin="round"/>
    <path fill="#E2E2E3" d="M440.38 501.66c3.4.7 8.2-1.9 9.78-2.78 1.6-.86 6.86-4.3 6.4-7.55l-2.14-2.05c.44 3.07-4.46 6.34-5.93 7.16-1.5.82-5.94 3.3-9.1 2.63l.98 2.6z"/>
    <path stroke="#869094" d="M440.38 501.66c3.4.7 8.2-1.9 9.78-2.78 1.6-.86 6.86-4.3 6.4-7.55l-2.14-2.05c.44 3.07-4.46 6.34-5.93 7.16-1.5.82-5.94 3.3-9.1 2.63l.98 2.6z" stroke-linecap="round" stroke-linejoin="round"/>
    <path fill="#E2E2E3" d="M437.47 502.63c.9 2.62 2.93 4.3 4.5 3.75 1.6-.55 2.13-3.12 1.22-5.74-.92-2.62-2.94-4.3-4.52-3.75-1.57.54-2.12 3.1-1.2 5.73"/>
    <path stroke="#869094" d="M437.47 502.63c.9 2.62 2.93 4.3 4.5 3.75 1.6-.55 2.13-3.12 1.22-5.74-.92-2.62-2.94-4.3-4.52-3.75-1.57.54-2.12 3.1-1.2 5.73z" stroke-linecap="round" stroke-linejoin="round"/>
    <path fill="#E2E2E3" d="M435.7 503.22c.9 2.62 2.92 4.3 4.5 3.75 1.58-.55 2.12-3.12 1.2-5.74-.9-2.6-2.92-4.3-4.5-3.74-1.57.54-2.12 3.1-1.2 5.72"/>
    <path stroke="#869094" d="M435.7 503.22c.9 2.62 2.92 4.3 4.5 3.75 1.58-.55 2.12-3.12 1.2-5.74-.9-2.6-2.92-4.3-4.5-3.74-1.57.54-2.12 3.1-1.2 5.72z" stroke-linecap="round" stroke-linejoin="round"/>
    <g transform="translate(440 474)">
      <mask id="j" fill="#fff">
        <use xlink:href="#i"/>
      </mask>
      <path fill="#E2E2E2" d="M-6.4 13.86H13V-5.78H-6.4" mask="url(#j)"/>
      <path stroke="#869094" d="M-6.4 13.86H13V-5.78H-6.4z" mask="url(#j)"/>
    </g>
    <g transform="translate(440 474)">
      <mask id="l" fill="#fff">
        <use xlink:href="#k"/>
      </mask>
      <path stroke="#869094" d="M-19.03 12.05H6.34V-1.3h-25.37z" mask="url(#l)"/>
    </g>
    <g>
      <path stroke="#869094" d="M446.07 477.77s1.15 2.06-1.35 3.4c0 0-2.12-2.18-4.35-2.33 0 0-.7-2.77 1.62-3.94l4.07 2.87z"/>
      <path fill="#FFF" d="M446.34 476.74s-2.12-4.64-7.53-4.36c0 0-3.57 4.64.75 11.26 0 0 3.95-7.6 6.8-6.9"/>
    </g>
    <g transform="translate(437 472)">
      <mask id="n" fill="#fff">
        <use xlink:href="#m"/>
      </mask>
      <path fill="#FFF" d="M-16.53 14.12H9.6V.36h-26.13" mask="url(#n)"/>
    </g>
    <g transform="translate(437 472)">
      <mask id="p" fill="#fff">
        <use xlink:href="#o"/>
      </mask>
      <path fill="#FFF" d="M-6.46 18.52H16.2V-6.5H-6.45" mask="url(#p)"/>
      <path stroke="#869094" d="M-6.46 18.52H16.2V-6.5H-6.45z" mask="url(#p)"/>
    </g>
    <g transform="translate(437 472)">
      <mask id="r" fill="#fff">
        <use xlink:href="#q"/>
      </mask>
      <path stroke="#869094" d="M-16.53 14.12H9.6V.36h-26.13z" mask="url(#r)"/>
    </g>
    <path stroke="#869094" d="M446.34 476.74s-2.12-4.64-7.53-4.36c0 0-3.57 4.64.75 11.26 0 0 3.95-7.6 6.8-6.9"/>
    <g transform="translate(419 482)">
      <mask id="t" fill="#fff">
        <use xlink:href="#s"/>
      </mask>
      <path fill="#869094" d="M-8.22 14.04H10.9V-7.3H-8.2" mask="url(#t)"/>
    </g>
    <path fill="#869094" d="M433.3 483.45c-.23.13-.48.2-.72.24-.64.07-1.28-.2-1.6-.75-.14-.24-.2-.52-.18-.8.03-.55.36-1.12.93-1.44.36-.2 2.46.05 2.7.48.44.75-.3 1.8-1.14 2.27"/>
    <g transform="translate(430 480)">
      <mask id="v" fill="#fff">
        <use xlink:href="#u"/>
      </mask>
      <path fill="#869094" d="M-9.03 8.05h25.37V-5.3H-9.03" mask="url(#v)"/>
    </g>
    <g transform="translate(430 480)">
      <mask id="x" fill="#fff">
        <use xlink:href="#w"/>
      </mask>
      <path fill="#869094" d="M-5.88 10.38h17.12V-6.04H-5.88" mask="url(#x)"/>
    </g>
    <g transform="translate(0 1)">
      <path fill="#E2E2E3" d="M188.8 245.5h-18.3v-1.53l3.04-1.52h12.2l3.05 1.52"/>
      <path stroke="#869094" d="M188.8 245.5h-18.3v-1.53l3.04-1.52h12.2l3.05 1.52z"/>
      <mask id="z" fill="#fff">
        <use xlink:href="#y"/>
      </mask>
      <path fill="#E2E2E3" d="M176.5 242.5h6v-5h-6" mask="url(#z)"/>
      <path stroke="#869094" d="M176.5 242.5h6v-5h-6z" mask="url(#z)"/>
      <path fill="#E2E2E3" d="M174 238.5c-.83 0-1.5-.67-1.5-1.5v-20c0-.83.67-1.5 1.5-1.5h11c.83 0 1.5.67 1.5 1.5v20c0 .83-.67 1.5-1.5 1.5h-11z" mask="url(#z)"/>
      <path fill="#869094" d="M185 215h-11c-1.1 0-2 .9-2 2v20c0 1.1.9 2 2 2h11c1.1 0 2-.9 2-2v-20c0-1.1-.9-2-2-2m0 1c.55 0 1 .45 1 1v20c0 .55-.45 1-1 1h-11c-.55 0-1-.45-1-1v-20c0-.55.45-1 1-1h11" mask="url(#z)"/>
      <path stroke="#869094" d="M183.36 223.14c0 2.13-1.73 3.86-3.86 3.86s-3.86-1.73-3.86-3.86 1.73-3.86 3.86-3.86 3.86 1.73 3.86 3.86z" mask="url(#z)"/>
      <path stroke="#869094" d="M181 223c0 .83-.67 1.5-1.5 1.5s-1.5-.67-1.5-1.5.67-1.5 1.5-1.5 1.5.67 1.5 1.5zM181 231c0 .83-.67 1.5-1.5 1.5s-1.5-.67-1.5-1.5.67-1.5 1.5-1.5 1.5.67 1.5 1.5z" mask="url(#z)"/>
      <path fill="#E2E2E3" d="M68.5 207.5h4v-14h-4" mask="url(#z)"/>
      <path stroke="#869094" d="M68.5 207.5h4v-14h-4z" mask="url(#z)"/>
      <path fill="#E2E2E3" d="M60.5 207.5h20v-1h-20" mask="url(#z)"/>
      <path stroke="#869094" d="M60.5 207.5h20v-1h-20z" mask="url(#z)"/>
      <path fill="#E2E2E3" d="M79.5 201.5h-18c-.55 0-1-.45-1-1v-14c0-.55.45-1 1-1h18c.55 0 1 .45 1 1v14c0 .55-.45 1-1 1" mask="url(#z)"/>
      <path stroke="#869094" d="M79.5 201.5h-18c-.55 0-1-.45-1-1v-14c0-.55.45-1 1-1h18c.55 0 1 .45 1 1v14c0 .55-.45 1-1 1z" stroke-linecap="round" stroke-linejoin="round" mask="url(#z)"/>
      <path fill="#E2E2E3" d="M62.5 196.5h16v-6h-16" mask="url(#z)"/>
      <path stroke="#869094" d="M62.5 196.5h16v-6h-16z" stroke-linecap="round" stroke-linejoin="round" mask="url(#z)"/>
      <path stroke="#869094" d="M60.75 186c2.12 1.18 4.37 2 9.63 2 5.26 0 7.5-.82 9.62-2M60.75 201c2.12-1.18 4.37-2 9.63-2 5.26 0 7.5.82 9.62 2" mask="url(#z)"/>
      <g mask="url(#z)">
        <path fill="#E2E2E3" d="M232.3 456.78l.22 9.76c.03 1.24 1.22 2.2 2.1 2.74 1 .6 2.2 1.07 3.3 1.4 2.24.7 4.76 1.08 7.08 1.24 3.22.23 6.73.1 9.92-.48 1.58-.3 3.3-.72 4.78-1.35.75-.33 1.5-.72 2.17-1.23.38-.3.7-.6 1-1 .2-.3.34-.62.4-.98l.03-.3c.1-3.26.18-6.53.26-9.8"/>
        <path stroke="#869094" d="M232.3 456.78l.22 9.76c.03 1.24 1.22 2.2 2.1 2.74 1 .6 2.2 1.07 3.3 1.4 2.24.7 4.76 1.08 7.08 1.24 3.22.23 6.73.1 9.92-.48 1.58-.3 3.3-.72 4.78-1.35.75-.33 1.5-.72 2.17-1.23.38-.3.7-.6 1-1 .2-.3.34-.62.4-.98l.03-.3c.1-3.26.18-6.53.26-9.8" stroke-linecap="round" stroke-linejoin="round"/>
      </g>
      <g mask="url(#z)">
        <path fill="#E2E2E3" d="M263.8 447.88l-.22 8.36c0 .07 0 .15-.02.22-.07.33-.26.62-.48.86-.33.36-.76.64-1.18.88-.7.4-1.5.7-2.27.94-1.52.5-3.24.82-4.82 1.03-3.17.44-6.64.54-9.83.36-2.27-.13-4.73-.42-6.95-.94-1.1-.27-2.3-.62-3.34-1.1-.52-.22-1.06-.5-1.5-.88-.27-.2-.5-.43-.68-.73-.13-.22-.2-.46-.22-.72-.05-1.92-.1-3.85-.13-5.77"/>
        <path stroke="#869094" d="M263.8 447.88l-.22 8.36c0 .07 0 .15-.02.22-.07.33-.26.62-.48.86-.33.36-.76.64-1.18.88-.7.4-1.5.7-2.27.94-1.52.5-3.24.82-4.82 1.03-3.17.44-6.64.54-9.83.36-2.27-.13-4.73-.42-6.95-.94-1.1-.27-2.3-.62-3.34-1.1-.52-.22-1.06-.5-1.5-.88-.27-.2-.5-.43-.68-.73-.13-.22-.2-.46-.22-.72-.05-1.92-.1-3.85-.13-5.77" stroke-linecap="round" stroke-linejoin="round"/>
      </g>
      <g mask="url(#z)">
        <path fill="#E2E2E3" d="M262.8 443.78c-1.1-2.24-3.18-3.83-5.35-4.82-2.22-1-4.72-1.48-7.13-1.54-1.67-.04-3.36.1-5 .43-1.66.33-3.24.83-4.78 1.54-1.5.68-2.97 1.57-4.24 2.67-1.25 1.1-2.35 2.42-3.07 3.94l-.22.47-.3.7c-.3.83-.5 1.65-.54 2.54-.05.86.04 1.76.28 2.6.25.8.64 1.62 1.13 2.32.5.73 1.08 1.35 1.75 1.92.66.57 1.38 1.05 2.15 1.46.74.4 1.6.77 2.4 1.04 1.6.54 3.4.86 5.1.95 2 .1 4.02-.06 5.98-.48.98-.2 1.94-.48 2.9-.82.94-.34 1.85-.74 2.74-1.2 1.75-.95 3.4-2.17 4.7-3.7.65-.75 1.23-1.6 1.66-2.5.43-.9.7-1.9.8-2.9.15-1.42-.1-2.84-.73-4.13l-.24-.48"/>
        <path stroke="#869094" d="M262.8 443.78c-1.1-2.24-3.18-3.83-5.35-4.82-2.22-1-4.72-1.48-7.13-1.54-1.67-.04-3.36.1-5 .43-1.66.33-3.24.83-4.78 1.54-1.5.68-2.97 1.57-4.24 2.67-1.25 1.1-2.35 2.42-3.07 3.94l-.22.47-.3.7c-.3.83-.5 1.65-.54 2.54-.05.86.04 1.76.28 2.6.25.8.64 1.62 1.13 2.32.5.73 1.08 1.35 1.75 1.92.66.57 1.38 1.05 2.15 1.46.74.4 1.6.77 2.4 1.04 1.6.54 3.4.86 5.1.95 2 .1 4.02-.06 5.98-.48.98-.2 1.94-.48 2.9-.82.94-.34 1.85-.74 2.74-1.2 1.75-.95 3.4-2.17 4.7-3.7.65-.75 1.23-1.6 1.66-2.5.43-.9.7-1.9.8-2.9.15-1.42-.1-2.84-.73-4.13l-.24-.48" stroke-linecap="round" stroke-linejoin="round"/>
      </g>
      <path stroke="#869094" d="M236.4 451.47l21.22.97 1.35-8.8-19.73-.7z" stroke-linecap="round" stroke-linejoin="round" mask="url(#z)"/>
      <path fill="#FFF" d="M479.5 311.5h122v-167h-122" mask="url(#z)"/>
      <path fill="#869094" d="M479 312h123V144H479v168zm1-1h121V145H480v166z" mask="url(#z)"/>
      <path fill="#FFF" d="M484.5 306.5h117v-157h-117" mask="url(#z)"/>
      <path fill="#869094" d="M484 307h118V149H484v158zm1-1h116V150H485v156z" mask="url(#z)"/>
      <path fill="#F4F6F8" d="M506.04 243.02c-2.05 0-4 .38-5.78 1.07v-.66c0-8.53-6.8-15.44-15.2-15.44H485v44h22.9c.45 0 .88-.1 1.26-.3 7-1.36 12.24-7.2 12.24-14.2 0-8-6.88-14.48-15.36-14.48M601 173.5c-3.17-1.9-6.85-3-10.8-3-10.78 0-19.68 8.14-21.07 18.7-1.03-.26-2.1-.4-3.2-.4-5.08 0-9.5 2.85-11.82 7.06-1.48-.34-3.03-.53-4.63-.53-10.75 0-19.47 8.2-19.47 18.34 0 10.12 8.72 18.33 19.47 18.33.62 0 1.23-.03 1.83-.08.27.05.54.08.82.08H601v-58.5z" mask="url(#z)"/>
      <path fill="#FFF" d="M551.5 307.5h5v-158h-5" mask="url(#z)"/>
      <path fill="#869094" d="M551 308h6V149h-6v159zm1-1h4V150h-4v157z" mask="url(#z)"/>
      <path fill="#FFF" d="M548.5 220.5h3v16h-3c-.55 0-1-.45-1-1v-14c0-.55.45-1 1-1" mask="url(#z)"/>
      <path stroke="#869094" d="M548.5 220.5h3v16h-3c-.55 0-1-.45-1-1v-14c0-.55.45-1 1-1z" stroke-linecap="round" stroke-linejoin="round" mask="url(#z)"/>
      <path fill="#FFF" d="M559.5 220.5h-3v16h3c.55 0 1-.45 1-1v-14c0-.55-.45-1-1-1" mask="url(#z)"/>
      <path stroke="#869094" d="M559.5 220.5h-3v16h3c.55 0 1-.45 1-1v-14c0-.55-.45-1-1-1z" stroke-linecap="round" stroke-linejoin="round" mask="url(#z)"/>
      <path fill="#E2E2E3" d="M524.5 306.5h4v-14h-4" mask="url(#z)"/>
      <path stroke="#869094" d="M524.5 306.5h4v-14h-4z" mask="url(#z)"/>
      <path fill="#E2E2E3" d="M518.5 306.5h16v-3h-16" mask="url(#z)"/>
      <path stroke="#869094" d="M518.5 306.5h16v-3h-16z" mask="url(#z)"/>
      <path fill="#E2E2E3" d="M538 287.73c0 6.35-5.15 11.5-11.5 11.5-6.36 0-11.5-5.15-11.5-11.5s5.14-11.5 11.5-11.5c6.35 0 11.5 5.15 11.5 11.5" mask="url(#z)"/>
      <path stroke="#869094" d="M538 287.73c0 6.35-5.15 11.5-11.5 11.5-6.36 0-11.5-5.15-11.5-11.5s5.14-11.5 11.5-11.5c6.35 0 11.5 5.15 11.5 11.5z" stroke-linecap="round" stroke-linejoin="round" mask="url(#z)"/>
      <path stroke="#869094" d="M526.5 286.38c-.75 0-1.36.6-1.36 1.35 0 .75.6 1.35 1.36 1.35.74 0 1.35-.6 1.35-1.35 0-.75-.6-1.35-1.35-1.35" mask="url(#z)"/>
      <path stroke="#869094" d="M528.4 283.24c-.1.37-.47.58-.83.48-.36-.1-.58-.46-.48-.83.1-.37.46-.58.82-.48.36.1.58.46.48.82zM530.4 284.8c-.28.26-.7.26-.97 0-.26-.27-.26-.7 0-.96s.7-.26.96 0c.25.26.25.7 0 .96zM531.33 287.13c-.36.1-.73-.1-.83-.47-.1-.36.12-.74.48-.83.36-.1.74.12.83.48.1.37-.1.74-.47.83zM530.98 289.63c-.36-.1-.57-.47-.48-.83.1-.36.47-.57.83-.47.36.1.58.46.48.82-.1.36-.46.58-.82.48zM529.43 291.62c-.26-.26-.26-.7 0-.96.27-.26.7-.26.96 0 .25.27.25.7 0 .96-.28.26-.7.26-.97 0zM527.1 292.56c-.1-.36.1-.73.47-.82.36-.1.73.1.83.47.1.38-.12.75-.48.84-.36.1-.73-.1-.83-.48zM524.6 292.22c.1-.37.46-.58.82-.48.36.1.58.46.48.83-.1.36-.47.57-.83.47-.36-.1-.57-.46-.48-.82zM522.6 290.66c.27-.26.7-.26.97 0 .26.27.26.7 0 .96-.27.26-.7.26-.96 0s-.26-.7 0-.96zM521.66 288.32c.36-.1.73.12.83.48.1.36-.13.73-.5.83-.35.1-.72-.12-.82-.48-.1-.36.12-.73.48-.83zM522 285.83c.37.1.6.47.5.83-.1.36-.48.57-.84.47-.36-.1-.57-.46-.48-.82.1-.36.47-.57.83-.47zM523.56 283.84c.27.26.27.7 0 .96-.26.26-.7.26-.95 0-.26-.27-.26-.7 0-.96.27-.26.7-.26.96 0zM525.9 282.9c.1.36-.12.73-.48.82-.36.1-.73-.12-.83-.48-.1-.36.1-.73.47-.82.36-.1.74.1.83.47zM529.8 279.92c-.16.63-.8 1-1.43.84-.63-.17-1-.82-.84-1.44.17-.63.82-1 1.44-.84.63.17 1 .82.84 1.44zM533.27 282.63c-.46.46-1.2.46-1.67 0-.46-.46-.46-1.2 0-1.67.46-.46 1.2-.46 1.67 0 .46.46.46 1.2 0 1.67zM534.9 286.7c-.62.16-1.26-.2-1.43-.84-.17-.63.2-1.27.83-1.44.63-.17 1.28.2 1.44.83.17.63-.2 1.28-.83 1.44zM534.3 291.04c-.63-.17-1-.8-.83-1.44.17-.63.8-1 1.44-.83.64.16 1 .8.84 1.44-.16.63-.8 1-1.44.84zM531.6 294.5c-.46-.46-.46-1.2 0-1.67.46-.46 1.2-.46 1.67 0 .46.46.46 1.2 0 1.67-.46.46-1.2.46-1.67 0zM527.53 296.14c-.17-.62.2-1.27.84-1.44.62-.17 1.27.2 1.44.83.18.63-.2 1.28-.83 1.45-.62.16-1.27-.2-1.44-.84zM523.2 295.53c.16-.62.8-1 1.43-.83.63.17 1 .8.83 1.44-.17.63-.8 1-1.44.84-.63-.17-1-.82-.83-1.45zM519.73 292.83c.46-.46 1.2-.46 1.66 0 .45.46.45 1.2 0 1.67-.47.46-1.2.46-1.67 0-.46-.46-.46-1.2 0-1.67zM518.08 288.76c.63-.16 1.28.2 1.45.84.16.63-.2 1.27-.84 1.44-.64.17-1.28-.2-1.45-.83-.17-.62.2-1.27.83-1.44zM518.7 284.42c.62.17 1 .8.83 1.44-.17.63-.82 1-1.45.83-.62-.18-1-.82-.83-1.45.17-.63.8-1 1.44-.83zM521.4 280.96c.45.46.45 1.2 0 1.67-.47.45-1.2.45-1.67 0-.46-.46-.46-1.2 0-1.67.46-.46 1.2-.46 1.66 0zM525.46 279.32c.17.62-.2 1.27-.83 1.44-.63.17-1.27-.2-1.44-.84-.18-.62.2-1.27.82-1.44.63-.17 1.27.2 1.44.84z" stroke-linecap="round" stroke-linejoin="round" mask="url(#z)"/>
      <path fill="#FFF" d="M467.5 311.5h134v-5h-134" mask="url(#z)"/>
      <path stroke="#869094" d="M467.5 311.5h134v-5h-134z" stroke-linecap="round" stroke-linejoin="round" mask="url(#z)"/>
      <g mask="url(#z)">
        <path fill="#FFF" d="M208.5 384.7l4.15 26.9c0 1.75 5.18 3.17 11.57 3.17 6.4 0 11.57-1.42 11.57-3.16l4.14-26.9"/>
        <path stroke="#869094" d="M208.5 384.7l4.15 26.9c0 1.75 5.18 3.17 11.57 3.17 6.4 0 11.57-1.42 11.57-3.16l4.14-26.9" stroke-linecap="round" stroke-linejoin="round"/>
      </g>
      <path fill="#FFF" d="M239.95 384.75c0 1.8-7.04 3.25-15.73 3.25-8.68 0-15.72-1.45-15.72-3.25s7.04-3.25 15.72-3.25c8.7 0 15.73 1.46 15.73 3.25" mask="url(#z)"/>
      <path stroke="#869094" d="M239.95 384.75c0 1.8-7.04 3.25-15.73 3.25-8.68 0-15.72-1.45-15.72-3.25s7.04-3.25 15.72-3.25c8.7 0 15.73 1.46 15.73 3.25z" stroke-linecap="round" stroke-linejoin="round" mask="url(#z)"/>
      <g mask="url(#z)">
        <path fill="#FFF" d="M232.1 329.8c1.06-3.15 4.16-12.9 14.45-18.08 10.3-5.18 20.62-3.75 25.3.36-3.22 2.62-11.08 10.07-18.9 13.22-9.46 3.83-20.84 4.5-20.84 4.5"/>
        <path stroke="#869094" d="M232.1 329.8c1.06-3.15 4.16-12.9 14.45-18.08 10.3-5.18 20.62-3.75 25.3.36-3.22 2.62-11.08 10.07-18.9 13.22-9.46 3.83-20.84 4.5-20.84 4.5"/>
      </g>
      <g mask="url(#z)">
        <path fill="#FFF" d="M223.63 326.56c-5.33-1.37-12.2-6.7-16.15-11.35-3.95-4.63-7.73-16.15-7.73-18.9 3.78-.17 13.45.3 18.9 7.56 9.8 13.07 4.98 22.7 4.98 22.7"/>
        <path stroke="#869094" d="M223.63 326.56c-5.33-1.37-12.2-6.7-16.15-11.35-3.95-4.63-7.73-16.15-7.73-18.9 3.78-.17 13.45.3 18.9 7.56 9.8 13.07 4.98 22.7 4.98 22.7"/>
      </g>
      <g mask="url(#z)">
        <path fill="#FFF" d="M221.16 342.97c-5.65-.5-11.63.32-18.5-2.94-6.88-3.25-15.58-10.02-23.16-14.58.92-3.35 10.9-8.55 18.34-5.75 19.1 7.2 23.32 23.27 23.32 23.27"/>
        <path stroke="#869094" d="M221.16 342.97c-5.65-.5-11.63.32-18.5-2.94-6.88-3.25-15.58-10.02-23.16-14.58.92-3.35 10.9-8.55 18.34-5.75 19.1 7.2 23.32 23.27 23.32 23.27"/>
      </g>
      <g mask="url(#z)">
        <path fill="#FFF" d="M230 346.16c2.62-5.27 5.2-11.32 14.54-15.25 9.35-3.93 19.42-3.37 25.68 1.3-4.55 9.16-12.3 15-18.7 17.02-12.12 3.85-21.52-3.06-21.52-3.06"/>
        <path stroke="#869094" d="M230 346.16c2.62-5.27 5.2-11.32 14.54-15.25 9.35-3.93 19.42-3.37 25.68 1.3-4.55 9.16-12.3 15-18.7 17.02-12.12 3.85-21.52-3.06-21.52-3.06"/>
      </g>
      <g mask="url(#z)">
        <path fill="#FFF" d="M219.77 354.92c-4.8-3.6-9.92-8.26-18.38-7.74-11.18.7-17.2 8.25-17.7 11.52 4.46 4.64 12.9 9.45 22.67 8.94 16.66-.86 13.4-12.72 13.4-12.72"/>
        <path stroke="#869094" d="M219.77 354.92c-4.8-3.6-9.92-8.26-18.38-7.74-11.18.7-17.2 8.25-17.7 11.52 4.46 4.64 12.9 9.45 22.67 8.94 16.66-.86 13.4-12.72 13.4-12.72"/>
      </g>
      <path stroke="#869094" d="M224.3 353.1c.97-2.42 3.76-5.18 5.7-6.94 4.4-4 15.05-8.78 25.68-11.53M226 338.56c5.24-6.52 9.86-13 20.85-18.78 4.84-2.54 11-4.8 16.3-6.4M226.06 335.4c-.45-7.48-9.56-22.8-19.18-34.14M224.3 349.55c-2.16-7.82-7.77-13.4-15.1-16.9-4.3-2.04-10.42-3.95-16.35-5.44M223.66 358c-4.9-5.58-17.74-4.63-27.2-2.85" stroke-linecap="round" stroke-linejoin="round" mask="url(#z)"/>
      <g mask="url(#z)">
        <path fill="#FFF" d="M227.12 323.32c11.54.7 12.56-8.9 13.1-12.25.87-5.63-1.2-15.65-6.28-17.57-6.18 2.94-11.1 8-14.14 13.9-1.9 3.67-5.74 15.8 7.32 15.92"/>
        <path stroke="#869094" d="M227.12 323.32c11.54.7 12.56-8.9 13.1-12.25.87-5.63-1.2-15.65-6.28-17.57-6.18 2.94-11.1 8-14.14 13.9-1.9 3.67-5.74 15.8 7.32 15.92"/>
      </g>
      <path stroke="#869094" d="M224.5 387.5c-1.96-27.92 1.53-65.6 6.83-85.8" stroke-linecap="round" stroke-linejoin="round" mask="url(#z)"/>
      <path fill="#E2E2E3" d="M234.5 366.5l-5-4v25h5" mask="url(#z)"/>
      <path stroke="#869094" d="M234.5 366.5l-5-4v25h5z" mask="url(#z)"/>
      <path fill="#869094" d="M229 371h6v-1h-6" mask="url(#z)"/>
      <path fill="#E2E2E3" d="M315.55 466.5c1.73-1.18 5.4-2 9.7-2 4.3 0 7.98.82 9.7 2 .67-.45 1.05-.96 1.05-1.5 0-1.93-4.8-3.5-10.75-3.5-5.94 0-10.75 1.57-10.75 3.5 0 .54.38 1.05 1.05 1.5" mask="url(#z)"/>
      <path stroke="#869094" d="M315.55 466.5c1.73-1.18 5.4-2 9.7-2 4.3 0 7.98.82 9.7 2 .67-.45 1.05-.96 1.05-1.5 0-1.93-4.8-3.5-10.75-3.5-5.94 0-10.75 1.57-10.75 3.5 0 .54.38 1.05 1.05 1.5z" stroke-linecap="round" stroke-linejoin="round" mask="url(#z)"/>
      <path fill="#E2E2E3" d="M334.95 466.5c-1.73 1.18-5.4 2-9.7 2-4.3 0-7.98-.82-9.7-2-.67.45-1.05.96-1.05 1.5 0 1.93 4.8 3.5 10.75 3.5 5.94 0 10.75-1.57 10.75-3.5 0-.54-.38-1.05-1.05-1.5" mask="url(#z)"/>
      <path stroke="#869094" d="M334.95 466.5c-1.73 1.18-5.4 2-9.7 2-4.3 0-7.98-.82-9.7-2-.67.45-1.05.96-1.05 1.5 0 1.93 4.8 3.5 10.75 3.5 5.94 0 10.75-1.57 10.75-3.5 0-.54-.38-1.05-1.05-1.5z" stroke-linecap="round" stroke-linejoin="round" mask="url(#z)"/>
      <path stroke="#869094" d="M336.5 464.5v4" stroke-linecap="round" mask="url(#z)"/>
      <path stroke="#869094" d="M314.5 464.5v4" stroke-linecap="round" stroke-linejoin="round" mask="url(#z)"/>
      <path fill="#E2E2E3" d="M328.5 471.5h-5c-.55 0-1-.45-1-1v-1c0-.55.45-1 1-1h5c.55 0 1 .45 1 1v1c0 .55-.45 1-1 1" mask="url(#z)"/>
      <path stroke="#869094" d="M328.5 471.5h-5c-.55 0-1-.45-1-1v-1c0-.55.45-1 1-1h5c.55 0 1 .45 1 1v1c0 .55-.45 1-1 1z" stroke-linecap="round" stroke-linejoin="round" mask="url(#z)"/>
      <path fill="#FFF" d="M602 0H0v602h602V0zM1 601h600V1H1v600z" mask="url(#z)"/>
    </g>
  </g>
</svg>
