<?xml version="1.0" encoding="iso-8859-1"?>
<!-- Generator: Adobe Illustrator 19.0.0, SVG Export Plug-In . SVG Version: 6.00 Build 0)  -->
<svg xmlns="http://www.w3.org/2000/svg" xmlns:xlink="http://www.w3.org/1999/xlink" version="1.1" id="Layer_1" x="0px" y="0px" viewBox="0 0 511.998 511.998" style="enable-background:new 0 0 511.998 511.998;" xml:space="preserve" width="512px" height="512px">
<g>
	<g>
		<path d="M170.579,290.115c-4.716,0-8.529,3.821-8.529,8.529v127.934c0,4.708,3.812,8.529,8.529,8.529s8.529-3.821,8.529-8.529    V298.644C179.107,293.936,175.295,290.115,170.579,290.115z" fill="#FFFFFF"/>
	</g>
</g>
<g>
	<g>
		<path d="M511.744,144.816c0.64-27.565-9.902-53.476-30.508-74.952c-26.013-27.113-65.587-43.617-105.963-44.146    c-73.971,0-136.463,54.679-136.463,119.405v93.818H8.529c-4.716,0-8.529,3.821-8.529,8.529v230.281    c0,4.708,3.812,8.529,8.529,8.529h324.099c4.716,0,8.529-3.821,8.529-8.529V247.47c0-4.708-3.812-8.529-8.529-8.529H315.57    v-85.289c0-26.781,28.461-51.174,59.592-51.174c29.263,0.384,60.172,15.42,59.822,43.003    c1.586,37.016,15.071,43.182,42.986,42.278c10.286-0.418,18.994-4.392,25.143-11.505    C509.945,168.381,512.93,157.524,511.744,144.816z M324.099,255.999v213.223H17.058V255.999H324.099z M490.234,165.081    c-3.011,3.463-7.48,5.407-12.87,5.629c-19.037,0.606-24.197,0.733-25.331-25.476c0.435-33.519-32.521-59.233-76.76-59.813    c-40.888,0-76.76,31.881-76.76,68.231v85.289h-42.645v-93.818c0-55.481,54.679-102.347,119.294-102.347    c35.787,0.469,70.841,15.011,93.758,38.909c17.51,18.243,26.414,40.103,25.757,63.199c-0.008,0.367,0.009,0.734,0.043,1.109    C495.556,154.138,493.995,160.739,490.234,165.081z" fill="#FFFFFF"/>
	</g>
</g>
<g>
</g>
<g>
</g>
<g>
</g>
<g>
</g>
<g>
</g>
<g>
</g>
<g>
</g>
<g>
</g>
<g>
</g>
<g>
</g>
<g>
</g>
<g>
</g>
<g>
</g>
<g>
</g>
<g>
</g>
</svg>
