<?xml version="1.0" encoding="iso-8859-1"?>
<!-- Generator: Adobe Illustrator 18.1.1, SVG Export Plug-In . SVG Version: 6.00 Build 0)  -->
<svg xmlns="http://www.w3.org/2000/svg" xmlns:xlink="http://www.w3.org/1999/xlink" version="1.1" id="Capa_1" x="0px" y="0px" viewBox="0 0 270.067 270.067" style="enable-background:new 0 0 270.067 270.067;" xml:space="preserve" width="512px" height="512px">
<path color-rendering="auto" image-rendering="auto" shape-rendering="auto" color-interpolation="sRGB" d="M264.924,19.998  c-0.246,0.006-0.49,0.03-0.732,0.072H5c-2.761,0-5,2.239-5,5v220c0,2.761,2.239,5,5,5h260c2.761,0,5-2.239,5-5V25.886  c0.264-1.596-0.261-3.221-1.408-4.361c-0.027-0.029-0.054-0.058-0.082-0.086c-0.003-0.003-0.007-0.007-0.01-0.01  c-0.008-0.008-0.017-0.016-0.025-0.023c-0.95-0.92-2.226-1.427-3.549-1.408L264.924,19.998z M10,30.07h250v30H10V30.07z M25,40.07  c-2.761,0-5,2.239-5,5s2.239,5,5,5s5-2.239,5-5S27.761,40.07,25,40.07z M45,40.07c-2.761,0-5,2.239-5,5s2.239,5,5,5s5-2.239,5-5  S47.761,40.07,45,40.07z M65,40.07c-2.761,0-5,2.239-5,5s2.239,5,5,5s5-2.239,5-5S67.761,40.07,65,40.07z M10,70.07h250v170H10  V70.07z M115.201,120.074c-2.759-0.111-5.086,2.036-5.197,4.796c-0.003,0.067-0.004,0.134-0.004,0.2v59.268  c-0.3,1.946,0.57,3.888,2.223,4.959c0.018,0.011,0.037,0.022,0.055,0.033c0.092,0.059,0.186,0.115,0.281,0.168  c0.119,0.066,0.241,0.127,0.365,0.184c1.739,0.795,3.78,0.528,5.256-0.688l49.395-29.637c2.368-1.421,3.136-4.492,1.716-6.86  c-0.422-0.704-1.012-1.293-1.716-1.716l-50-30c-0.719-0.431-1.534-0.674-2.371-0.707L115.201,120.074z M120,133.9l35.281,21.17  L120,176.238V133.9z" fill="#1996ce"/>
<g>
</g>
<g>
</g>
<g>
</g>
<g>
</g>
<g>
</g>
<g>
</g>
<g>
</g>
<g>
</g>
<g>
</g>
<g>
</g>
<g>
</g>
<g>
</g>
<g>
</g>
<g>
</g>
<g>
</g>
</svg>
