<?xml version="1.0" encoding="iso-8859-1"?>
<!-- Generator: Adobe Illustrator 19.0.0, SVG Export Plug-In . SVG Version: 6.00 Build 0)  -->
<svg xmlns="http://www.w3.org/2000/svg" xmlns:xlink="http://www.w3.org/1999/xlink" version="1.1" id="Layer_1" x="0px" y="0px" viewBox="0 0 512 512" style="enable-background:new 0 0 512 512;" xml:space="preserve" width="512px" height="512px">
<g>
	<g>
		<path d="M0,23.753v464.495h512V23.753H0z M496.165,472.412H15.835v-58.062h480.33V472.412z M496.165,398.516H15.835V113.485    h480.33V398.516z M496.165,97.649H15.835V39.588h480.33V97.649z" fill="#1996ce"/>
	</g>
</g>
<g>
	<g>
		<rect x="44.866" y="435.464" width="337.814" height="15.835" fill="#1996ce"/>
	</g>
</g>
<g>
	<g>
		<rect x="446.021" y="435.464" width="21.113" height="15.835" fill="#1996ce"/>
	</g>
</g>
<g>
	<g>
		<rect x="403.794" y="435.464" width="21.113" height="15.835" fill="#1996ce"/>
	</g>
</g>
<g>
	<g>
		<rect x="44.866" y="60.701" width="26.392" height="15.835" fill="#1996ce"/>
	</g>
</g>
<g>
	<g>
		<rect x="87.093" y="60.701" width="26.392" height="15.835" fill="#1996ce"/>
	</g>
</g>
<g>
	<g>
		<rect x="440.742" y="60.701" width="26.392" height="15.835" fill="#1996ce"/>
	</g>
</g>
<g>
	<g>
		<path d="M205.856,203.602v110.075l110.076-55.037L205.856,203.602z M221.691,229.223l58.831,29.416l-58.831,29.416V229.223z" fill="#1996ce"/>
	</g>
</g>
<g>
</g>
<g>
</g>
<g>
</g>
<g>
</g>
<g>
</g>
<g>
</g>
<g>
</g>
<g>
</g>
<g>
</g>
<g>
</g>
<g>
</g>
<g>
</g>
<g>
</g>
<g>
</g>
<g>
</g>
</svg>
