<?xml version="1.0" encoding="iso-8859-1"?>
<!-- Generator: Adobe Illustrator 19.0.0, SVG Export Plug-In . SVG Version: 6.00 Build 0)  -->
<svg xmlns="http://www.w3.org/2000/svg" xmlns:xlink="http://www.w3.org/1999/xlink" version="1.1" id="Layer_1" x="0px" y="0px" viewBox="0 0 512.003 512.003" style="enable-background:new 0 0 512.003 512.003;" xml:space="preserve" width="512px" height="512px">
<g>
	<g>
		<path d="M229.008,342.593c-0.587-0.65-1.185-1.286-1.796-1.91l-73.208-74.988c-4.885-5.004-11.446-7.725-18.42-7.644    c-6.993,0.075-13.476,2.929-18.253,8.037c-8.948,9.567-9.063,24.662-0.263,34.365l44.08,48.604c1.356,1.496,2.01,3.427,1.84,5.439    c-0.169,2.012-1.138,3.807-2.724,5.054c-2.935,2.306-7.215,1.962-9.745-0.789l-51.007-55.49    c-3.222-3.507-5.183-8.054-5.518-12.806l-1.631-23.099l16.201-18.7c6.609-7.629,8.895-17.977,6.114-27.682    c-2.781-9.704-10.2-17.272-19.847-20.243l-8.003-2.464c-3.495-11.967-14.57-20.619-27.476-20.619c-0.072,0-0.148,0-0.221,0.001    c-7.67,0.059-14.852,3.107-20.223,8.585c-5.372,5.477-8.279,12.718-8.186,20.388l1.382,115.604    c0.164,13.652,5.242,26.796,14.299,37.01l77.453,87.34c2.604,2.936,4.024,6.715,4,10.64l-0.287,46.26    c-0.028,4.676,3.739,8.491,8.414,8.519c0.019,0,0.036,0,0.054,0c4.651,0,8.438-3.756,8.466-8.415l0.287-46.259    c0.051-8.108-2.885-15.914-8.264-21.981l-77.453-87.34c-6.358-7.17-9.922-16.395-10.037-25.977l-1.382-115.604    c-0.036-3.133,1.152-6.091,3.345-8.328s5.128-3.483,8.262-3.507c0.029,0,0.06,0,0.09,0c6.118,0,11.234,4.76,11.665,10.873    l6.086,86.194c0.604,8.561,4.135,16.755,9.944,23.072l51.007,55.49c8.475,9.219,22.826,10.381,32.673,2.645    c5.245-4.122,8.577-10.299,9.137-16.948c0.561-6.648-1.688-13.296-6.17-18.238l-44.08-48.604    c-2.925-3.225-2.888-8.241,0.087-11.421c1.587-1.698,3.741-2.646,6.066-2.671c0.032,0,0.063,0,0.094,0    c2.288,0,4.428,0.9,6.03,2.541l73.208,74.99c0.47,0.481,0.929,0.969,1.382,1.466c10.759,11.831,15.396,28.684,12.4,45.082    l-15.794,86.503c-0.84,4.6,2.208,9.01,6.809,9.85c4.59,0.841,9.009-2.208,9.85-6.809l15.794-86.503    C249.474,380.552,243.294,358.302,229.008,342.593z M88.776,216.595l1.067,0.328c4.221,1.299,7.339,4.479,8.555,8.723    c1.216,4.244,0.255,8.591-2.636,11.928l-5.089,5.874L88.776,216.595z" fill="#FFFFFF"/>
	</g>
</g>
<g>
	<g>
		<path d="M473.096,186.24c-5.37-5.477-12.552-8.525-20.222-8.583c-0.075,0-0.148-0.001-0.221-0.001    c-12.754,0-23.723,8.449-27.352,20.197l-9.374,2.887c-9.647,2.971-17.066,10.539-19.847,20.243    c-2.781,9.703-0.494,20.052,6.114,27.682l17.353,20.031l-1.536,21.768c-0.335,4.751-2.295,9.298-5.519,12.806l-51.008,55.49    c-2.528,2.75-6.806,3.093-9.743,0.788c-1.587-1.247-2.556-3.043-2.724-5.054c-0.169-2.012,0.483-3.942,1.84-5.438l44.08-48.604    c8.799-9.703,8.683-24.799-0.264-34.365c-4.777-5.107-11.259-7.961-18.253-8.037c-6.964-0.07-13.535,2.639-18.419,7.644    l-73.208,74.987c-0.609,0.623-1.205,1.258-1.795,1.905c-14.287,15.712-20.467,37.961-16.53,59.517l15.794,86.503    c0.84,4.6,5.255,7.65,9.85,6.809c4.6-0.84,7.649-5.25,6.809-9.85l-15.794-86.503c-2.994-16.397,1.64-33.25,12.395-45.078    c0.453-0.498,0.916-0.988,1.388-1.471l73.209-74.988c1.623-1.663,3.775-2.556,6.121-2.54c2.324,0.025,4.479,0.973,6.066,2.671    c2.975,3.179,3.013,8.196,0.088,11.422l-44.08,48.604c-4.482,4.941-6.732,11.59-6.171,18.238c0.56,6.648,3.89,12.826,9.139,16.948    c9.848,7.737,24.199,6.574,32.671-2.645l51.007-55.49c5.808-6.319,9.34-14.513,9.945-23.072l6.086-86.195    c0.431-6.113,5.547-10.872,11.665-10.872c0.029,0,0.061,0,0.09,0c3.133,0.024,6.067,1.269,8.26,3.507    c2.194,2.238,3.382,5.195,3.345,8.329l-1.381,115.604c-0.115,9.583-3.68,18.808-10.039,25.977l-77.453,87.339    c-5.381,6.067-8.315,13.873-8.264,21.981l0.288,46.26c0.028,4.658,3.814,8.414,8.466,8.414c0.018,0,0.036,0,0.054,0    c4.676-0.029,8.443-3.843,8.414-8.519l-0.288-46.26c-0.024-3.924,1.395-7.703,4-10.639l77.453-87.339    c9.059-10.215,14.137-23.358,14.3-37.012l1.381-115.604C481.376,198.957,478.468,191.716,473.096,186.24z M421.237,244.78    l-6.242-7.205c-2.891-3.337-3.852-7.685-2.636-11.928c1.216-4.245,4.334-7.424,8.554-8.723l2.341-0.721L421.237,244.78z" fill="#FFFFFF"/>
	</g>
</g>
<g>
	<g>
		<path d="M256.002,0c-77.594,0-140.724,63.128-140.724,140.723s63.129,140.723,140.723,140.723s140.723-63.128,140.723-140.723    S333.596,0,256.002,0z M200.636,30.028c-5.626,7.029-10.721,15.174-15.16,24.315c-4.232-1.73-8.316-3.599-12.183-5.64    C181.495,41.324,190.684,35.026,200.636,30.028z M161.118,61.313c5.591,3.218,11.534,6.112,17.771,8.685    c-1.171,3.224-2.276,6.532-3.298,9.938c-1.343,4.48,1.199,9.199,5.677,10.542c4.482,1.343,9.2-1.199,10.542-5.677    c0.937-3.125,1.956-6.154,3.036-9.106c16.308,4.928,34.125,7.82,52.687,8.499v48.062h-63.419c0.233-5.776,0.68-11.516,1.381-17.14    c0.579-4.64-2.714-8.87-7.355-9.449c-4.643-0.579-8.871,2.714-9.449,7.355c-0.787,6.313-1.285,12.755-1.526,19.234h-34.658    C134.333,105.359,144.786,80.796,161.118,61.313z M132.507,149.191h34.658v-0.001c0.82,22.185,4.835,43.422,11.712,62.266    c-6.232,2.572-12.17,5.464-17.756,8.679C144.787,200.653,134.333,176.088,132.507,149.191z M173.295,232.744    c3.881-2.048,7.982-3.923,12.231-5.658c1.958,4.003,4.045,7.873,6.291,11.559c2.826,4.64,5.824,8.92,8.967,12.845    C190.776,246.481,181.537,240.157,173.295,232.744z M247.535,263.638c-15.33-3.167-29.738-14.89-41.254-33.801    c-1.629-2.676-3.163-5.465-4.625-8.336c14.289-4.129,29.861-6.63,45.88-7.286V263.638z M247.535,197.256    c-18.575,0.679-36.404,3.574-52.72,8.508c-6.233-17.018-9.898-36.312-10.701-56.574h63.421V197.256z M247.535,67.235    c-16.018-0.656-31.589-3.158-45.877-7.286c11.757-23.103,28.216-38.355,45.877-42.1V67.235z M338.71,48.704    c-3.881,2.049-7.982,3.925-12.231,5.661c-1.959-4.006-4.047-7.877-6.294-11.565c-2.826-4.64-5.824-8.92-8.967-12.845    C321.227,34.965,330.468,41.288,338.71,48.704z M264.469,17.807c15.33,3.167,29.737,14.89,41.253,33.801    c1.63,2.677,3.166,5.469,4.628,8.341c-14.288,4.129-29.86,6.63-45.881,7.286V17.807z M311.206,251.494    c2.269-2.826,4.459-5.836,6.563-9.032c2.571-3.904,1.488-9.155-2.418-11.725c-3.907-2.571-9.157-1.488-11.729,2.418    c-11.134,16.92-24.794,27.473-39.153,30.468v-49.411c27.471,1.124,53.655,7.664,74.238,18.529    C330.461,240.16,321.218,246.485,311.206,251.494z M350.883,220.137c-23.815-13.71-53.965-21.696-86.413-22.88V149.19h49.567    c4.677,0,8.467-3.791,8.467-8.467c0-4.676-3.79-8.467-8.467-8.467h-49.567V84.194c18.577-0.678,36.406-3.573,52.721-8.508    c7.094,19.374,10.888,41.691,10.888,65.037c0,17.143-2.04,33.752-6.061,49.368c-1.166,4.528,1.559,9.146,6.087,10.312    c0.709,0.183,1.419,0.27,2.118,0.27c3.771,0,7.211-2.537,8.194-6.357c4.378-16.994,6.598-35.025,6.598-53.591    c0-25.239-4.138-49.499-11.884-70.729c6.232-2.572,12.17-5.465,17.756-8.681c16.333,19.482,26.786,44.046,28.611,70.942h-15.498    c-4.677,0-8.467,3.791-8.467,8.467c0,4.676,3.79,8.467,8.467,8.467h15.498C377.67,176.089,367.216,200.653,350.883,220.137z" fill="#FFFFFF"/>
	</g>
</g>
<g>
</g>
<g>
</g>
<g>
</g>
<g>
</g>
<g>
</g>
<g>
</g>
<g>
</g>
<g>
</g>
<g>
</g>
<g>
</g>
<g>
</g>
<g>
</g>
<g>
</g>
<g>
</g>
<g>
</g>
</svg>
